%
M48
M72
T01C0.0100
T02C0.0320
T03C0.0354
T04C0.0360
T05C0.0394
T06C0.0400
T07C0.0450
T08C0.0520
T09C0.0551
T10C0.0591
T11C0.0630
T12C0.0669
T13C0.0900
T14C0.1181
T15C0.1280
T16C0.1417
T17C0.1575
%
T01
X6150Y6160
X10400Y3710
X16301Y2821
X18770Y6160
X16400Y7610
X16450Y9160
X16130Y9540
X17500Y10160
X18770Y11620
X21170Y11820
X22650Y11820
X21000Y10110
X22650Y9060
X23200Y9410
X21900Y7160
X23200Y6210
X22810Y5500
X22400Y4810
X21970Y5500
X18930Y8580
X12340Y11430
X9700Y12210
X8150Y12060
X7100Y12060
X5730Y13420
X2900Y14860
X6600Y18360
X6850Y21810
X7650Y23960
X8600Y24010
X10100Y24060
X11605Y22120
X13050Y21840
X6910Y24600
X5900Y29560
X4700Y30710
X6300Y33160
X7000Y35110
X7800Y35360
X9000Y35110
X5490Y35820
X6400Y39960
X6750Y42110
X7450Y44760
X5600Y45460
X6400Y46660
X7500Y46910
X7400Y47560
X7030Y47510
X6950Y48710
X7450Y49210
X8130Y48965
X7050Y49910
X7470Y51900
X10100Y53010
X11600Y52310
X11550Y50310
X10950Y49760
X8440Y47100
X8450Y46280
X10450Y46160
X10500Y44810
X10020Y44480
X9720Y43760
X11990Y44290
X12450Y45510
X14500Y45710
X14650Y44560
X15955Y47590
X16335Y47520
X15980Y48070
X15460Y48200
X19850Y49960
X20170Y50640
X20220Y52110
X19900Y53210
X21300Y54610
X23945Y54840
X26150Y56310
X27395Y55915
X28000Y55915
X27710Y56520
X28595Y56700
X28280Y57325
X30085Y54600
X33330Y52620
X34510Y53300
X34655Y53975
X35150Y53720
X35985Y54030
X36440Y52975
X35610Y52140
X33120Y51560
X31725Y51020
X31890Y49540
X32580Y49230
X34290Y47780
X35530Y48100
X36710Y47860
X37290Y47250
X37540Y45295
X37520Y44730
X37010Y43420
X36490Y43340
X35630Y44220
X34590Y43900
X33710Y43560
X32810Y43620
X33030Y44370
X33110Y44880
X33050Y45660
X33190Y46200
X33050Y47020
X36470Y49560
X42070Y45860
X42400Y45020
X43760Y45265
X43980Y45940
X43710Y46195
X45210Y46350
X43680Y47910
X48670Y46940
X49050Y47281
X50285Y46660
X51020Y47170
X50550Y47580
X52200Y46370
X53785Y48080
X56540Y47625
X56960Y46855
X57805Y46515
X56770Y44410
X55990Y42640
X53950Y43460
X53100Y43260
X51290Y42740
X51750Y41210
X50890Y41060
X52400Y39510
X53450Y40020
X54140Y39360
X53550Y38610
X54550Y38460
X56330Y37780
X55900Y36110
X55300Y36010
X53770Y36020
X51230Y37280
X52315Y37760
X48950Y38310
X48200Y39510
X46450Y39210
X46450Y40310
X43900Y38710
X43400Y39490
X41550Y38060
X41195Y40390
X39360Y40350
X38750Y42320
X33410Y41420
X32580Y40820
X30740Y39800
X27210Y38880
X26890Y39120
X26550Y39300
X25665Y38135
X25245Y38120
X25450Y37420
X24985Y36850
X24530Y37780
X24150Y37680
X23890Y36840
X23630Y36600
X23290Y36120
X23050Y35460
X23520Y35400
X24970Y35340
X20610Y35980
X19995Y36890
X20970Y41600
X22550Y43580
X25730Y44720
X26550Y45720
X26210Y45970
X26910Y46260
X27210Y46505
X27405Y47220
X26330Y48160
X25450Y49300
X26330Y49480
X26330Y50620
X23850Y52260
X24950Y47780
X22255Y47305
X11005Y41755
X10875Y40010
X12380Y36330
X18345Y28685
X24230Y24960
X24070Y24120
X23510Y22520
X23790Y20960
X24270Y20380
X25095Y20845
X25190Y19500
X25910Y19180
X26750Y19140
X27080Y19310
X27430Y19180
X28910Y19120
X29810Y19020
X30530Y19480
X32430Y17680
X35370Y19900
X33920Y21900
X32315Y22440
X30410Y22480
X30470Y21960
X30510Y24280
X29867Y24820
X29788Y26015
X31600Y26660
X32750Y25810
X37315Y28230
X38670Y27960
X43210Y30820
X45150Y30160
X47800Y30410
X48410Y28300
X51730Y29940
X52230Y31320
X58200Y31410
X61240Y32430
X61570Y34580
X61570Y35540
X60330Y37940
X62050Y38940
X60750Y40060
X61140Y40810
X62100Y40560
X60850Y41760
X59310Y43020
X56350Y41010
X54450Y40640
X49770Y43540
X49550Y43280
X50275Y45225
X49870Y45660
X57580Y49590
X60055Y49420
X60510Y49960
X61410Y50380
X61440Y51040
X61770Y52700
X63615Y51115
X62310Y49145
X66140Y45190
X66190Y43215
X68000Y42560
X69400Y43370
X72370Y45730
X72890Y45460
X74085Y46100
X71850Y47550
X74585Y48370
X72410Y50300
X71020Y50720
X69785Y49960
X68875Y49665
X68450Y53210
X68563Y54850
X64605Y55900
X64605Y57615
X65930Y58915
X67090Y59150
X67430Y59295
X68850Y58175
X69555Y58215
X73350Y55305
X73890Y55620
X73890Y54940
X76395Y56930
X77585Y55235
X77315Y53890
X77295Y52550
X79204Y49881
X78345Y49375
X77615Y48915
X78720Y57385
X76275Y58690
X75185Y58305
X74535Y61140
X64810Y62010
X63835Y60505
X62182Y59204
X60440Y57285
X59230Y56555
X58775Y58265
X57285Y58635
X55515Y60245
X59900Y62170
X59965Y61735
X62450Y55050
X59840Y54240
X59235Y53365
X58755Y53645
X58755Y54645
X55315Y54885
X51850Y53810
X50180Y54385
X47120Y54870
X46390Y53665
X40590Y59040
X43250Y59585
X43170Y60620
X36710Y62010
X34610Y59020
X24700Y58380
X24730Y57420
X23150Y61210
X4050Y53510
X3795Y51000
X1675Y49460
X1665Y46945
X1900Y45120
X25230Y28220
X26530Y28280
X26790Y26300
X26070Y26280
X27755Y26265
X21410Y22620
X13535Y14925
X9650Y10020
X6200Y10210
X27850Y5500
X30350Y5910
X30350Y7410
X31550Y7260
X32250Y7910
X31950Y9410
X30500Y8910
X28810Y9460
X28930Y10420
X33950Y6360
X33650Y5310
X32050Y5860
X34900Y9060
X39050Y6510
X39100Y7960
X42450Y8410
X42500Y7410
X44450Y7010
X44650Y5910
X46050Y4410
X48090Y4260
X49750Y6460
X49850Y7960
X49400Y8660
X49605Y10405
X53305Y12030
X50890Y13460
X51210Y14700
X49900Y16860
X48400Y15160
X46900Y15360
X45450Y15560
X42330Y17660
X43580Y20445
X44570Y23900
X47900Y20760
X49550Y21310
X49800Y20710
X50550Y24780
X51290Y24840
X51030Y25400
X51370Y25520
X51690Y25740
X52030Y25940
X52390Y25960
X52790Y25220
X53900Y26110
X60150Y27710
X69340Y34160
X71250Y32940
X71730Y29420
X69600Y26210
X70600Y25210
X68110Y18240
X66890Y17760
X65220Y18200
X64240Y16420
X62950Y16840
X62270Y15700
X62240Y15130
X64620Y14630
X66230Y14640
X64170Y12590
X63150Y11160
X62220Y12130
X61500Y12490
X59070Y11680
X58600Y10060
X55000Y6910
X55000Y5860
X55900Y4860
X59300Y4910
X61500Y4810
X62800Y4060
X64550Y4660
X65500Y4310
X66750Y3810
X63850Y5760
X62200Y6510
X63550Y8460
X65350Y7410
X66150Y7710
X66950Y6360
X67950Y8110
X70500Y9310
X72300Y8460
X72600Y9260
X74150Y10260
X75600Y10260
X75850Y11010
X76810Y10260
X75500Y7660
X77330Y7540
X77450Y6410
X78690Y7660
X72300Y3390
X77950Y1510
X66450Y10210
X64250Y10360
X71350Y11310
X61570Y17790
X61360Y20180
X57770Y20240
X58850Y16860
X55405Y15290
X53250Y8460
X53350Y7410
X51450Y4910
X45790Y11410
X43510Y12455
X40890Y12530
X40930Y5180
X40460Y4560
X37410Y4060
X44150Y32950
X43850Y34260
X44570Y34980
X45500Y34510
X45200Y36210
X43610Y36410
X40000Y34910
X36950Y34520
X71075Y38140
X75230Y36920
T02
X32940Y36525
X32940Y35525
X32940Y37525
X32940Y38525
X32940Y39525
X22130Y46260
X21130Y46260
X20130Y46260
X19130Y46260
X18130Y46260
T03
X6716Y4557
X6716Y5463
X7700Y5463
X7700Y4557
X8684Y4557
X8684Y5463
X14247Y6976
X15153Y6976
X15153Y7960
X14247Y7960
X14247Y8944
X15153Y8944
X8984Y13207
X8000Y13207
X7016Y13207
X7016Y14113
X8000Y14113
X8984Y14113
X8984Y16057
X8984Y16963
X8000Y16963
X8000Y16057
X7016Y16057
X7016Y16963
X7516Y25357
X7516Y26263
X8500Y26263
X8500Y25357
X9484Y25357
X9484Y26263
X8634Y27657
X7650Y27657
X6666Y27657
X6666Y28563
X7650Y28563
X8634Y28563
X8234Y36257
X8234Y37163
X7250Y37163
X7250Y36257
X6266Y36257
X6266Y37163
X6750Y54543
X5750Y54543
X4750Y54543
X5250Y55427
X6250Y55427
X7250Y55427
X4226Y55427
X3726Y54543
X3009Y59253
X4009Y59852
X6990Y59253
X7990Y59852
X33863Y32184
X33863Y31397
X34650Y31397
X34650Y30610
X33863Y30610
X33863Y29822
X34650Y29822
X34650Y29035
X33863Y29035
X33863Y28247
X34650Y28247
X34650Y27460
X33863Y27460
X34650Y32184
X46916Y22763
X46916Y21857
X47900Y21857
X47900Y22763
X48884Y22763
X48884Y21857
X49134Y14263
X49134Y13357
X48150Y13357
X48150Y14263
X47166Y14263
X47166Y13357
X47947Y7794
X48853Y7794
X48853Y6810
X47947Y6810
X47947Y5826
X48853Y5826
X46503Y5776
X45597Y5776
X45597Y6760
X46503Y6760
X46503Y7744
X45597Y7744
X38053Y7544
X37147Y7544
X37147Y6560
X38053Y6560
X38053Y5576
X37147Y5576
X35853Y6026
X34947Y6026
X34947Y7010
X35853Y7010
X35853Y7994
X34947Y7994
X27453Y7560
X26547Y7560
X26547Y6576
X27453Y6576
X27453Y8544
X26547Y8544
X24853Y8360
X23947Y8360
X23947Y9344
X24853Y9344
X24853Y7376
X23947Y7376
X55897Y7444
X56803Y7444
X56803Y6460
X55897Y6460
X55897Y5476
X56803Y5476
T04
X53900Y10310
X52900Y10310
X51900Y10310
X43245Y11135
X42245Y11135
X41245Y11135
X44450Y17110
X44450Y18110
X44450Y19110
X32925Y11230
X31925Y11230
X30925Y11230
X20290Y12585
X19290Y12585
X18290Y12585
X11700Y8810
X11700Y7810
X11700Y6810
X11800Y17510
X11800Y18510
X11800Y19510
X21105Y29635
X21105Y30635
X21105Y31635
X19830Y31975
X19830Y30975
X17860Y31540
X17860Y32540
X17860Y33540
X18930Y34650
X19930Y34650
X20930Y34650
X19830Y32975
X17945Y35760
X17945Y36760
X17945Y37760
X14535Y37810
X14535Y36810
X14535Y35810
X15835Y34645
X15835Y33645
X15835Y32645
X12900Y31910
X12900Y30910
X12900Y29910
X13350Y40660
X12350Y40660
X15808Y56430
X15808Y57210
X16792Y57210
X16792Y56430
X44000Y41110
X45000Y41110
X52000Y36710
X53000Y36710
X53210Y34920
X52210Y34920
X51960Y33270
X52960Y33270
X53950Y32010
X54950Y32010
X58200Y30910
X58200Y29910
X58600Y33310
X58600Y34310
X59080Y36040
X59080Y37040
X57100Y38610
X57100Y39610
X57200Y40610
X57200Y41610
X64850Y40960
X64850Y39960
X73810Y36360
X73810Y35360
X64100Y29210
X64100Y28210
X71600Y22710
X72600Y22710
X76205Y9660
X76205Y8660
X78675Y8580
X78675Y9580
X39800Y30170
X39800Y31170
X48965Y49450
X49965Y49450
X51160Y49735
X51160Y50735
X52435Y51950
X52435Y52950
X50500Y52595
X49500Y52595
X48150Y51560
X48150Y50560
X51000Y54640
X52000Y54640
X54595Y54165
X54595Y55165
X59615Y58875
X59615Y59875
X59615Y60875
X62135Y62120
X63135Y62120
X69140Y61640
X69140Y60640
X69140Y59640
X72660Y61940
X73660Y61940
X78720Y61090
X78720Y60090
X78720Y59090
X79120Y56410
X78120Y56410
X72705Y53930
X72705Y52930
X70410Y56305
X69410Y56305
X63730Y55100
X63730Y54100
X60915Y56035
X59915Y56035
X53600Y61390
X52600Y61390
T05
X70460Y17435
X73460Y17435
X75460Y17435
X77460Y17435
X77460Y14435
X75460Y14435
X73460Y14435
X70460Y14435
T06
X71950Y50985
X72950Y50985
X73950Y50985
X74950Y50985
X75950Y50985
X73555Y56450
X73555Y57450
X72555Y57450
X72555Y56450
X71555Y56450
X71555Y57450
X67150Y52115
X66150Y52115
X65150Y52115
X64150Y52115
X63150Y52115
X58285Y50740
X57285Y50740
X56285Y50740
X55285Y50740
X54285Y50740
X54065Y57015
X54065Y58015
X53065Y58015
X53065Y57015
X52065Y57015
X52065Y58015
X61645Y58150
X61645Y57150
X62645Y57150
X62645Y58150
X63645Y58150
X63645Y57150
T07
X40555Y57645
X39555Y57645
X38555Y57645
X37555Y57645
X36555Y57645
X36555Y56645
X37555Y56645
X38555Y56645
X39555Y56645
X40555Y56645
X35555Y56645
X34555Y56645
X33555Y56645
X32555Y56645
X31555Y56645
X31555Y57645
X32555Y57645
X33555Y57645
X34555Y57645
X35555Y57645
T08
X45320Y44550
X46530Y44855
X47470Y44230
X46210Y43340
X45040Y43080
X43870Y42860
X35745Y35380
X35765Y33505
X31650Y30160
X30800Y30660
X29900Y31160
X29650Y32210
X29100Y33310
X27850Y32360
X28450Y31410
X27245Y31245
X28250Y29710
X22820Y28280
X22425Y29775
X19275Y27760
X19945Y26985
X20235Y25675
X20650Y24060
X19550Y24110
X18665Y25065
X17920Y26050
X16845Y26790
X17855Y27290
X17070Y28015
X14400Y25160
X16150Y23510
X16600Y24460
X17750Y22770
X18300Y21610
X17090Y21290
X16250Y22110
X14550Y22260
X25250Y15910
X25350Y14760
X25220Y13775
X26840Y13760
X27050Y14960
X27150Y16060
X28850Y14060
X29850Y14910
X31150Y14660
X31600Y15760
X30050Y16110
X32650Y14410
X31300Y13560
X30840Y12450
X30050Y13410
X28750Y12960
X26600Y10310
X25685Y10920
X25016Y12149
X23660Y12040
X24260Y10970
X37850Y21000
X36620Y21720
X35630Y22040
X34590Y22140
X35970Y25235
X37265Y25185
X36070Y26340
X34650Y25790
X38895Y23845
X39970Y23420
X41000Y22905
X41830Y22180
X40820Y21335
X39735Y22225
X38500Y22580
X40720Y24650
X40410Y25600
X42200Y24110
T09
X67043Y45427
X68697Y45427
X68697Y47593
X67043Y47593
T10
X76201Y38301
X77579Y38301
X77579Y36923
X76201Y36923
X76201Y35545
X77579Y35545
X77579Y34167
X76201Y34167
X76201Y32789
X76201Y31411
X76201Y30033
X76201Y28655
X76201Y27277
X77579Y27277
X77579Y28655
X77579Y30033
X77579Y31411
X77579Y32777
X77579Y25899
X76201Y25899
T11
X8561Y56722
X2439Y56722
T12
X2800Y34549
X2800Y32990
X2800Y31430
X2800Y29871
X3000Y22849
X3000Y21290
X3000Y19730
X3000Y18171
X2800Y11349
X2800Y9790
X2800Y8230
X2800Y6671
X18561Y2610
X20120Y2610
X21680Y2610
X23239Y2610
X29711Y2510
X31270Y2510
X32830Y2510
X34389Y2510
X39211Y2410
X40770Y2410
X42330Y2410
X43889Y2410
X50361Y2410
X51920Y2410
X53480Y2410
X55039Y2410
X52760Y13891
X52760Y15450
X52760Y17010
X52760Y18569
X56585Y59935
X58145Y59935
X66030Y61060
X67590Y61060
X75760Y60935
X77320Y60935
T13
X18670Y58280
X13930Y58280
T14
X65193Y45608
X70547Y45608
T15
X7750Y57923
X3250Y57923
T16
X17130Y40940
X42410Y52180
X76770Y46940
X69090Y20980
X70290Y2580
X16490Y15820
T17
X77170Y23143
X77170Y41057
M30
