G75*
%MOIN*%
%OFA0B0*%
%FSLAX24Y24*%
%IPPOS*%
%LPD*%
%AMOC8*
5,1,8,0,0,1.08239X$1,22.5*
%
%ADD10C,0.0236*%
%ADD11C,0.0080*%
%ADD12C,0.0886*%
%ADD13R,0.0886X0.0886*%
%ADD14C,0.1575*%
%ADD15R,0.0100X0.0320*%
%ADD16R,0.0120X0.0320*%
%ADD17R,0.0320X0.0100*%
%ADD18R,0.0320X0.0120*%
%ADD19R,0.1060X0.1060*%
%ADD20C,0.0660*%
%ADD21C,0.1300*%
%ADD22R,0.0866X0.0236*%
%ADD23R,0.0433X0.0394*%
%ADD24R,0.0394X0.0433*%
%ADD25R,0.0354X0.0276*%
%ADD26R,0.0276X0.0354*%
%ADD27C,0.0100*%
%ADD28R,0.0630X0.0710*%
%ADD29R,0.0660X0.0110*%
%ADD30R,0.0110X0.0660*%
%ADD31R,0.0945X0.0669*%
%ADD32R,0.0675X0.0675*%
%ADD33C,0.0675*%
%ADD34R,0.0540X0.0130*%
%ADD35R,0.1380X0.0380*%
%ADD36R,0.3920X0.4200*%
%ADD37R,0.0380X0.1380*%
%ADD38R,0.4200X0.3920*%
%ADD39R,0.1060X0.0400*%
%ADD40R,0.4120X0.4100*%
%ADD41R,0.0220X0.0780*%
%ADD42C,0.0560*%
%ADD43R,0.0433X0.0075*%
%ADD44R,0.0075X0.0433*%
%ADD45R,0.0554X0.0554*%
%ADD46C,0.0554*%
%ADD47C,0.1680*%
%ADD48C,0.0945*%
%ADD49C,0.0040*%
%ADD50R,0.2000X0.2000*%
%ADD51C,0.0600*%
%ADD52C,0.1004*%
%ADD53R,0.0354X0.0315*%
%ADD54R,0.0591X0.0591*%
%ADD55R,0.0780X0.0220*%
%ADD56R,0.0472X0.0709*%
%ADD57R,0.0630X0.0118*%
%ADD58R,0.0118X0.0630*%
%ADD59R,0.0374X0.0846*%
%ADD60R,0.1280X0.0846*%
%ADD61R,0.0220X0.0900*%
%ADD62R,0.0900X0.0220*%
%ADD63C,0.0520*%
%ADD64R,0.0710X0.0630*%
%ADD65OC8,0.0850*%
%ADD66C,0.0709*%
%ADD67R,0.0390X0.0120*%
%ADD68R,0.0236X0.0512*%
%ADD69R,0.0390X0.0272*%
%ADD70R,0.0315X0.0354*%
%ADD71R,0.0669X0.0709*%
%ADD72R,0.0827X0.0827*%
%ADD73C,0.1181*%
%ADD74R,0.0800X0.0260*%
%ADD75R,0.0118X0.0276*%
%ADD76C,0.0600*%
%ADD77OC8,0.0600*%
%ADD78R,0.0984X0.1890*%
%ADD79R,0.1890X0.0984*%
%ADD80R,0.0787X0.1654*%
%ADD81R,0.0846X0.0374*%
%ADD82R,0.0846X0.1280*%
%ADD83R,0.0177X0.0177*%
%ADD84C,0.1417*%
%ADD85C,0.0260*%
D10*
X010400Y003710D03*
X016400Y007610D03*
X016450Y009160D03*
X017500Y010160D03*
X021000Y010110D03*
X022650Y009060D03*
X023200Y009410D03*
X021900Y007160D03*
X023200Y006210D03*
X022400Y004810D03*
X018650Y006160D03*
X009700Y012210D03*
X008150Y012060D03*
X006200Y010210D03*
X002900Y014860D03*
X006850Y021810D03*
X007650Y023960D03*
X008600Y024010D03*
X010100Y024060D03*
X004700Y030710D03*
X006300Y033160D03*
X007800Y035360D03*
X009000Y035110D03*
X006400Y039960D03*
X006750Y042110D03*
X005600Y045460D03*
X006400Y046660D03*
X007500Y046910D03*
X007400Y047560D03*
X007500Y049060D03*
X007050Y049360D03*
X007520Y052110D03*
X010100Y053010D03*
X011600Y052310D03*
X011550Y050310D03*
X010450Y046160D03*
X010500Y044810D03*
X012450Y045510D03*
X014500Y045710D03*
X014650Y044560D03*
X019850Y049960D03*
X020250Y050610D03*
X020150Y052110D03*
X019900Y053210D03*
X023850Y052260D03*
X032500Y049310D03*
X043900Y038710D03*
X041550Y038060D03*
X040000Y034910D03*
X043850Y034260D03*
X045500Y034510D03*
X045200Y036210D03*
X046450Y039210D03*
X046450Y040310D03*
X048200Y039510D03*
X048950Y038310D03*
X052400Y039510D03*
X054000Y039910D03*
X055000Y040610D03*
X053950Y043460D03*
X053100Y043260D03*
X051750Y041210D03*
X056080Y037500D03*
X055900Y036110D03*
X055300Y036010D03*
X058200Y031110D03*
X060150Y027710D03*
X053900Y026110D03*
X047800Y030410D03*
X045150Y030160D03*
X049550Y021310D03*
X049800Y020710D03*
X047900Y020760D03*
X049900Y016860D03*
X048400Y015160D03*
X046900Y015360D03*
X045450Y015560D03*
X042450Y008410D03*
X042500Y007410D03*
X044450Y007010D03*
X044650Y005910D03*
X046050Y004410D03*
X049750Y006460D03*
X049850Y007960D03*
X049400Y008660D03*
X053250Y008460D03*
X053350Y007410D03*
X055000Y006910D03*
X055000Y005860D03*
X055900Y004860D03*
X051450Y004910D03*
X040700Y004960D03*
X039050Y006510D03*
X039100Y007960D03*
X034900Y009060D03*
X032250Y007910D03*
X031550Y007260D03*
X030350Y007410D03*
X030350Y005910D03*
X032050Y005860D03*
X033650Y005310D03*
X033950Y006360D03*
X031950Y009410D03*
X030500Y008910D03*
X029650Y020410D03*
X029300Y021410D03*
X024400Y021710D03*
X023900Y022860D03*
X055450Y018410D03*
X056100Y018260D03*
X055700Y019110D03*
X055650Y020060D03*
X056300Y020410D03*
X056250Y021110D03*
X057800Y020710D03*
X058850Y016860D03*
X070600Y025210D03*
X069600Y026210D03*
X060850Y041760D03*
X050400Y046660D03*
X050620Y047110D03*
X062560Y055020D03*
X063610Y058020D03*
X023150Y061210D03*
X004050Y053510D03*
X003800Y050810D03*
X001600Y045860D03*
X063300Y002210D03*
X068700Y002260D03*
X072300Y003510D03*
X077950Y001510D03*
X077450Y006810D03*
X072400Y007860D03*
D11*
X061937Y055910D02*
X061939Y055931D01*
X061945Y055951D01*
X061954Y055971D01*
X061966Y055988D01*
X061981Y056002D01*
X061999Y056014D01*
X062019Y056022D01*
X062039Y056027D01*
X062060Y056028D01*
X062081Y056025D01*
X062101Y056019D01*
X062120Y056008D01*
X062137Y055995D01*
X062150Y055979D01*
X062161Y055961D01*
X062169Y055941D01*
X062173Y055921D01*
X062173Y055899D01*
X062169Y055879D01*
X062161Y055859D01*
X062150Y055841D01*
X062137Y055825D01*
X062120Y055812D01*
X062101Y055801D01*
X062081Y055795D01*
X062060Y055792D01*
X062039Y055793D01*
X062019Y055798D01*
X061999Y055806D01*
X061981Y055818D01*
X061966Y055832D01*
X061954Y055849D01*
X061945Y055869D01*
X061939Y055889D01*
X061937Y055910D01*
X061892Y059210D02*
X061894Y059231D01*
X061900Y059251D01*
X061909Y059271D01*
X061921Y059288D01*
X061936Y059302D01*
X061954Y059314D01*
X061974Y059322D01*
X061994Y059327D01*
X062015Y059328D01*
X062036Y059325D01*
X062056Y059319D01*
X062075Y059308D01*
X062092Y059295D01*
X062105Y059279D01*
X062116Y059261D01*
X062124Y059241D01*
X062128Y059221D01*
X062128Y059199D01*
X062124Y059179D01*
X062116Y059159D01*
X062105Y059141D01*
X062092Y059125D01*
X062075Y059112D01*
X062056Y059101D01*
X062036Y059095D01*
X062015Y059092D01*
X061994Y059093D01*
X061974Y059098D01*
X061954Y059106D01*
X061936Y059118D01*
X061921Y059132D01*
X061909Y059149D01*
X061900Y059169D01*
X061894Y059189D01*
X061892Y059210D01*
X062137Y059910D02*
X062139Y059931D01*
X062145Y059951D01*
X062154Y059971D01*
X062166Y059988D01*
X062181Y060002D01*
X062199Y060014D01*
X062219Y060022D01*
X062239Y060027D01*
X062260Y060028D01*
X062281Y060025D01*
X062301Y060019D01*
X062320Y060008D01*
X062337Y059995D01*
X062350Y059979D01*
X062361Y059961D01*
X062369Y059941D01*
X062373Y059921D01*
X062373Y059899D01*
X062369Y059879D01*
X062361Y059859D01*
X062350Y059841D01*
X062337Y059825D01*
X062320Y059812D01*
X062301Y059801D01*
X062281Y059795D01*
X062260Y059792D01*
X062239Y059793D01*
X062219Y059798D01*
X062199Y059806D01*
X062181Y059818D01*
X062166Y059832D01*
X062154Y059849D01*
X062145Y059869D01*
X062139Y059889D01*
X062137Y059910D01*
X060737Y061610D02*
X060739Y061631D01*
X060745Y061651D01*
X060754Y061671D01*
X060766Y061688D01*
X060781Y061702D01*
X060799Y061714D01*
X060819Y061722D01*
X060839Y061727D01*
X060860Y061728D01*
X060881Y061725D01*
X060901Y061719D01*
X060920Y061708D01*
X060937Y061695D01*
X060950Y061679D01*
X060961Y061661D01*
X060969Y061641D01*
X060973Y061621D01*
X060973Y061599D01*
X060969Y061579D01*
X060961Y061559D01*
X060950Y061541D01*
X060937Y061525D01*
X060920Y061512D01*
X060901Y061501D01*
X060881Y061495D01*
X060860Y061492D01*
X060839Y061493D01*
X060819Y061498D01*
X060799Y061506D01*
X060781Y061518D01*
X060766Y061532D01*
X060754Y061549D01*
X060745Y061569D01*
X060739Y061589D01*
X060737Y061610D01*
X061637Y062360D02*
X061639Y062381D01*
X061645Y062401D01*
X061654Y062421D01*
X061666Y062438D01*
X061681Y062452D01*
X061699Y062464D01*
X061719Y062472D01*
X061739Y062477D01*
X061760Y062478D01*
X061781Y062475D01*
X061801Y062469D01*
X061820Y062458D01*
X061837Y062445D01*
X061850Y062429D01*
X061861Y062411D01*
X061869Y062391D01*
X061873Y062371D01*
X061873Y062349D01*
X061869Y062329D01*
X061861Y062309D01*
X061850Y062291D01*
X061837Y062275D01*
X061820Y062262D01*
X061801Y062251D01*
X061781Y062245D01*
X061760Y062242D01*
X061739Y062243D01*
X061719Y062248D01*
X061699Y062256D01*
X061681Y062268D01*
X061666Y062282D01*
X061654Y062299D01*
X061645Y062319D01*
X061639Y062339D01*
X061637Y062360D01*
X058052Y059720D02*
X058054Y059741D01*
X058060Y059761D01*
X058069Y059781D01*
X058081Y059798D01*
X058096Y059812D01*
X058114Y059824D01*
X058134Y059832D01*
X058154Y059837D01*
X058175Y059838D01*
X058196Y059835D01*
X058216Y059829D01*
X058235Y059818D01*
X058252Y059805D01*
X058265Y059789D01*
X058276Y059771D01*
X058284Y059751D01*
X058288Y059731D01*
X058288Y059709D01*
X058284Y059689D01*
X058276Y059669D01*
X058265Y059651D01*
X058252Y059635D01*
X058235Y059622D01*
X058216Y059611D01*
X058196Y059605D01*
X058175Y059602D01*
X058154Y059603D01*
X058134Y059608D01*
X058114Y059616D01*
X058096Y059628D01*
X058081Y059642D01*
X058069Y059659D01*
X058060Y059679D01*
X058054Y059699D01*
X058052Y059720D01*
X058152Y059020D02*
X058154Y059041D01*
X058160Y059061D01*
X058169Y059081D01*
X058181Y059098D01*
X058196Y059112D01*
X058214Y059124D01*
X058234Y059132D01*
X058254Y059137D01*
X058275Y059138D01*
X058296Y059135D01*
X058316Y059129D01*
X058335Y059118D01*
X058352Y059105D01*
X058365Y059089D01*
X058376Y059071D01*
X058384Y059051D01*
X058388Y059031D01*
X058388Y059009D01*
X058384Y058989D01*
X058376Y058969D01*
X058365Y058951D01*
X058352Y058935D01*
X058335Y058922D01*
X058316Y058911D01*
X058296Y058905D01*
X058275Y058902D01*
X058254Y058903D01*
X058234Y058908D01*
X058214Y058916D01*
X058196Y058928D01*
X058181Y058942D01*
X058169Y058959D01*
X058160Y058979D01*
X058154Y058999D01*
X058152Y059020D01*
D12*
X076201Y038301D03*
X077579Y038301D03*
X077579Y036923D03*
X076201Y036923D03*
X076201Y035545D03*
X077579Y035545D03*
X077579Y034167D03*
X076201Y034167D03*
X076201Y032789D03*
X076201Y031411D03*
X076201Y030033D03*
X076201Y028655D03*
X076201Y027277D03*
X077579Y027277D03*
X077579Y028655D03*
X077579Y030033D03*
X077579Y031411D03*
X077579Y032777D03*
X077579Y025899D03*
D13*
X076201Y025899D03*
D14*
X077170Y023143D03*
X077170Y041057D03*
D15*
X023790Y057420D03*
X022810Y057420D03*
X022810Y058900D03*
X023790Y058900D03*
D16*
X023600Y058900D03*
X023400Y058900D03*
X023200Y058900D03*
X023000Y058900D03*
X023000Y057420D03*
X023200Y057420D03*
X023400Y057420D03*
X023600Y057420D03*
D17*
X024040Y057670D03*
X024040Y058650D03*
X022560Y058650D03*
X022560Y057670D03*
D18*
X022560Y057860D03*
X022560Y058060D03*
X022560Y058260D03*
X022560Y058460D03*
X024040Y058460D03*
X024040Y058260D03*
X024040Y058060D03*
X024040Y057860D03*
D19*
X023300Y058160D03*
D20*
X016792Y057210D03*
X016792Y056430D03*
X015808Y056430D03*
X015808Y057210D03*
D21*
X013930Y058280D03*
X018670Y058280D03*
D22*
X018611Y053960D03*
X018611Y053460D03*
X018611Y052960D03*
X018611Y052460D03*
X018611Y051960D03*
X018611Y051460D03*
X018611Y050960D03*
X018611Y050460D03*
X014989Y050460D03*
X014989Y050960D03*
X014989Y051460D03*
X014989Y051960D03*
X014989Y052460D03*
X014989Y052960D03*
X014989Y053460D03*
X014989Y053960D03*
X060936Y006740D03*
X060936Y006240D03*
X060936Y005740D03*
X060936Y005240D03*
X062984Y005240D03*
X062984Y005740D03*
X062984Y006240D03*
X062984Y006740D03*
D23*
X059385Y005730D03*
X058715Y005730D03*
X061980Y003365D03*
X061980Y002695D03*
X071620Y004725D03*
X071620Y005395D03*
X075640Y005455D03*
X075640Y006125D03*
X066190Y015295D03*
X066190Y015965D03*
X068565Y027510D03*
X069235Y027510D03*
X069335Y029110D03*
X068665Y029110D03*
X063360Y031565D03*
X062690Y031565D03*
X060485Y032310D03*
X059815Y032310D03*
X056435Y030060D03*
X055765Y030060D03*
X060765Y036360D03*
X061435Y036360D03*
X062055Y038360D03*
X062725Y038360D03*
X062615Y040510D03*
X063285Y040510D03*
X055635Y037960D03*
X054965Y037960D03*
X055245Y039820D03*
X054575Y039820D03*
X053635Y039310D03*
X052965Y039310D03*
X052835Y038310D03*
X052165Y038310D03*
X051535Y039010D03*
X050865Y039010D03*
X051215Y040560D03*
X051885Y040560D03*
X052715Y040560D03*
X053385Y040560D03*
X047635Y039510D03*
X046965Y039510D03*
X045985Y039260D03*
X045315Y039260D03*
X044635Y039410D03*
X043965Y039410D03*
X043135Y038910D03*
X042465Y038910D03*
X042165Y038118D03*
X042835Y038118D03*
X043135Y037310D03*
X042465Y037310D03*
X042415Y034560D03*
X043085Y034560D03*
X044815Y033910D03*
X045485Y033910D03*
X045485Y033110D03*
X044815Y033110D03*
X043185Y032410D03*
X042515Y032410D03*
X043215Y031360D03*
X043885Y031360D03*
X043665Y030160D03*
X044335Y030160D03*
X046580Y027670D03*
X047250Y027670D03*
X039130Y026195D03*
X038460Y026195D03*
X046165Y020560D03*
X046835Y020560D03*
X049515Y015210D03*
X050185Y015210D03*
X032825Y016930D03*
X032155Y016930D03*
X023395Y015505D03*
X022725Y015505D03*
X010135Y018410D03*
X009465Y018410D03*
X007035Y024060D03*
X006365Y024060D03*
X008915Y029360D03*
X009585Y029360D03*
X006435Y035310D03*
X005765Y035310D03*
X009465Y039710D03*
X010135Y039710D03*
X018150Y044105D03*
X018150Y044775D03*
X019120Y044755D03*
X019120Y044085D03*
X020160Y044090D03*
X020160Y044760D03*
X021200Y044745D03*
X021200Y044075D03*
X022115Y044060D03*
X022115Y044730D03*
X026050Y043575D03*
X026720Y043575D03*
X031165Y048660D03*
X031835Y048660D03*
X021385Y049010D03*
X020715Y049010D03*
X020815Y050410D03*
X021485Y050410D03*
X021335Y052160D03*
X020665Y052160D03*
X020615Y053810D03*
X021285Y053810D03*
X025465Y057310D03*
X026135Y057310D03*
X026135Y058160D03*
X025465Y058160D03*
X025465Y059060D03*
X026135Y059060D03*
X037415Y059040D03*
X038085Y059040D03*
X046415Y055610D03*
X047085Y055610D03*
X053030Y055785D03*
X053700Y055785D03*
X056600Y057875D03*
X057270Y057875D03*
X058100Y057525D03*
X058770Y057525D03*
X060100Y054925D03*
X060770Y054925D03*
X061730Y055880D03*
X062400Y055880D03*
X058700Y052905D03*
X058030Y052905D03*
X063025Y047975D03*
X063695Y047975D03*
X067910Y052565D03*
X068580Y052565D03*
X069275Y055210D03*
X069945Y055210D03*
X071500Y055205D03*
X072170Y055205D03*
X075430Y057500D03*
X076100Y057500D03*
X076720Y057475D03*
X077390Y057475D03*
X077875Y054080D03*
X078545Y054080D03*
X077530Y051370D03*
X076860Y051370D03*
X068440Y058500D03*
X067770Y058500D03*
X067085Y058600D03*
X066415Y058600D03*
X064845Y061090D03*
X064175Y061090D03*
X063300Y061075D03*
X062630Y061075D03*
X055130Y060635D03*
X054460Y060635D03*
X053270Y060025D03*
X052600Y060025D03*
X049835Y046660D03*
X049165Y046660D03*
X053865Y045730D03*
X054535Y045730D03*
X045885Y036910D03*
X045215Y036910D03*
X040685Y034260D03*
X040015Y034260D03*
X013785Y045960D03*
X013115Y045960D03*
X013065Y047360D03*
X013735Y047360D03*
X010585Y048360D03*
X009915Y048360D03*
X008185Y049960D03*
X007515Y049960D03*
X007665Y050860D03*
X008335Y050860D03*
X009565Y050560D03*
X010235Y050560D03*
X012465Y050410D03*
X013135Y050410D03*
X012630Y054085D03*
X011960Y054085D03*
X002735Y046610D03*
X002065Y046610D03*
X002015Y045660D03*
X002685Y045660D03*
X005765Y012110D03*
X006435Y012110D03*
X009015Y006510D03*
X009685Y006510D03*
X072575Y060380D03*
X073245Y060380D03*
X073980Y060325D03*
X074650Y060325D03*
D24*
X074765Y059400D03*
X074765Y058730D03*
X073920Y058725D03*
X073920Y059395D03*
X070300Y058230D03*
X070300Y057560D03*
X069440Y054545D03*
X069440Y053875D03*
X064960Y059245D03*
X064960Y059915D03*
X064130Y059915D03*
X064130Y059245D03*
X060840Y059395D03*
X060840Y058725D03*
X059275Y055060D03*
X059275Y054390D03*
X055285Y059105D03*
X055285Y059775D03*
X054375Y059785D03*
X054375Y059115D03*
X051035Y058520D03*
X051035Y057850D03*
X036920Y060885D03*
X036920Y061555D03*
X035040Y060895D03*
X035040Y060225D03*
X023805Y060220D03*
X023805Y060890D03*
X023100Y060595D03*
X023100Y059925D03*
X024200Y056245D03*
X024200Y055575D03*
X022715Y051625D03*
X022715Y050955D03*
X031295Y051015D03*
X031285Y050475D03*
X031285Y049805D03*
X031295Y051685D03*
X031470Y039890D03*
X031470Y039220D03*
X041100Y031945D03*
X041100Y031275D03*
X036655Y028900D03*
X036655Y028230D03*
X046850Y033725D03*
X046850Y034395D03*
X046950Y036575D03*
X046950Y037245D03*
X053950Y033845D03*
X053950Y033175D03*
X055400Y033625D03*
X055400Y034295D03*
X056800Y035575D03*
X056800Y036245D03*
X060750Y038875D03*
X060750Y039545D03*
X060050Y041075D03*
X060050Y041745D03*
X056700Y042725D03*
X056700Y043395D03*
X055750Y045675D03*
X055750Y046345D03*
X053250Y046225D03*
X053250Y046895D03*
X051350Y046695D03*
X051350Y046025D03*
X050750Y043895D03*
X050750Y043225D03*
X065330Y043660D03*
X065330Y044330D03*
X070510Y044160D03*
X070510Y043490D03*
X066399Y040175D03*
X066399Y039506D03*
X059700Y029695D03*
X059700Y029025D03*
X053900Y027595D03*
X053900Y026925D03*
X048460Y029105D03*
X048460Y029775D03*
X031700Y018345D03*
X031700Y017675D03*
X023550Y017245D03*
X023550Y016575D03*
X021850Y009895D03*
X021850Y009225D03*
X016450Y006545D03*
X016450Y005875D03*
X028650Y005625D03*
X028650Y006295D03*
X034150Y008925D03*
X034150Y009595D03*
X039050Y005445D03*
X039050Y004775D03*
X044400Y008125D03*
X044400Y008795D03*
X049650Y005395D03*
X049650Y004725D03*
X055150Y007875D03*
X055150Y008545D03*
X059380Y007585D03*
X059380Y006915D03*
X059295Y003860D03*
X058625Y003860D03*
X063650Y004025D03*
X063650Y004695D03*
X067405Y001380D03*
X068075Y001380D03*
X073155Y003340D03*
X073825Y003340D03*
X071745Y006870D03*
X071075Y006870D03*
X065945Y010760D03*
X065275Y010760D03*
X068855Y017390D03*
X069525Y017390D03*
X071470Y024485D03*
X071470Y025155D03*
X077895Y052550D03*
X077895Y053220D03*
X013900Y043145D03*
X013900Y042475D03*
X013700Y044225D03*
X013700Y044895D03*
X011100Y044645D03*
X011100Y043975D03*
X011750Y042345D03*
X011750Y041675D03*
X007650Y042125D03*
X007650Y042795D03*
X006400Y041195D03*
X006400Y040525D03*
X005350Y040525D03*
X005350Y041195D03*
X004250Y041245D03*
X004250Y040575D03*
X008950Y049325D03*
X008950Y049995D03*
X009000Y051225D03*
X009000Y051895D03*
X006900Y051745D03*
X006900Y051075D03*
X005950Y050295D03*
X005950Y049625D03*
X004890Y049625D03*
X004890Y050295D03*
X003800Y050295D03*
X003800Y049625D03*
X011300Y055875D03*
X011300Y056545D03*
X010600Y057375D03*
X010600Y058045D03*
D25*
X013300Y055966D03*
X013300Y055454D03*
X025220Y046566D03*
X025220Y046054D03*
X025210Y045346D03*
X025210Y044834D03*
X019875Y036256D03*
X019875Y035744D03*
X009450Y041154D03*
X009450Y041666D03*
X036190Y059354D03*
X036190Y059866D03*
X044200Y060154D03*
X044200Y060666D03*
D26*
X039206Y041010D03*
X038694Y041010D03*
X041694Y040410D03*
X042206Y040410D03*
X012606Y043310D03*
X012094Y043310D03*
X011999Y057205D03*
X012511Y057205D03*
X056244Y015810D03*
X056756Y015810D03*
D27*
X064340Y017560D03*
X066320Y017950D03*
X073520Y013640D03*
X075520Y013650D03*
X077300Y011675D03*
X076230Y010460D03*
X071270Y011770D03*
X067260Y010510D03*
X069990Y007560D03*
X064630Y005280D03*
X063930Y005250D03*
X061980Y004640D03*
X057710Y005100D03*
X065750Y001610D03*
X068250Y002940D03*
X072320Y002640D03*
X075850Y003430D03*
X076940Y005240D03*
X078730Y004625D03*
X074005Y018735D03*
X066685Y028210D03*
X070600Y029110D03*
X065560Y037605D03*
X063800Y039910D03*
X059700Y040110D03*
X058150Y039610D03*
X055600Y038810D03*
X054550Y038860D03*
X054100Y038260D03*
X054510Y040330D03*
X055550Y043760D03*
X055850Y044560D03*
X053780Y045320D03*
X053250Y045110D03*
X053250Y045670D03*
X053900Y046220D03*
X050850Y045810D03*
X044450Y046410D03*
X044540Y047650D03*
X044260Y048270D03*
X043450Y047650D03*
X042670Y047040D03*
X042000Y047260D03*
X041950Y046660D03*
X041400Y046860D03*
X041450Y046260D03*
X041500Y045860D03*
X041500Y045660D03*
X041650Y045460D03*
X041745Y045065D03*
X041750Y044510D03*
X043200Y044660D03*
X042675Y046030D03*
X042490Y047860D03*
X037700Y051660D03*
X036820Y051710D03*
X036640Y052000D03*
X037010Y050600D03*
X035950Y050410D03*
X036430Y049150D03*
X034500Y050510D03*
X034100Y050360D03*
X034270Y050890D03*
X034670Y051310D03*
X033900Y051760D03*
X033700Y051010D03*
X033280Y051020D03*
X029100Y047610D03*
X029100Y046610D03*
X029340Y046250D03*
X028950Y045865D03*
X028450Y046060D03*
X027900Y046490D03*
X027650Y047460D03*
X029350Y044710D03*
X029100Y044460D03*
X029050Y043860D03*
X029000Y043690D03*
X029050Y043310D03*
X027950Y043510D03*
X032480Y041980D03*
X034400Y040660D03*
X034650Y040310D03*
X034850Y039830D03*
X035060Y039505D03*
X035500Y039760D03*
X035550Y040010D03*
X035650Y040210D03*
X036250Y039850D03*
X036800Y039910D03*
X037250Y039810D03*
X037630Y039400D03*
X036055Y040935D03*
X035840Y041140D03*
X037425Y041260D03*
X040700Y039760D03*
X041850Y038910D03*
X044800Y040010D03*
X045950Y040860D03*
X047150Y040410D03*
X048700Y038960D03*
X048450Y037290D03*
X047800Y037260D03*
X050850Y034660D03*
X047800Y031210D03*
X053850Y030860D03*
X056400Y031260D03*
X059800Y031410D03*
X059000Y027860D03*
X058150Y035210D03*
X041050Y033450D03*
X041380Y029550D03*
X033395Y022685D03*
X026505Y029215D03*
X026590Y030235D03*
X025810Y030310D03*
X025455Y031015D03*
X025220Y031720D03*
X024530Y031870D03*
X024720Y032250D03*
X024310Y031410D03*
X023750Y031840D03*
X023340Y031530D03*
X024295Y030285D03*
X023900Y028660D03*
X026435Y031210D03*
X026030Y031635D03*
X026685Y031900D03*
X016495Y030385D03*
X033090Y040330D03*
X033950Y040060D03*
X023350Y050065D03*
X025050Y053110D03*
X023950Y053360D03*
X022700Y054660D03*
X024830Y055545D03*
X024250Y056610D03*
X022265Y057310D03*
X021235Y057665D03*
X021250Y058260D03*
X022150Y059960D03*
X026140Y060010D03*
X034210Y058320D03*
X038880Y060850D03*
X045230Y056755D03*
X047350Y057760D03*
X050000Y057870D03*
X051360Y052920D03*
X061760Y050720D03*
X038100Y053960D03*
X013800Y050460D03*
X013310Y053995D03*
X011300Y058210D03*
X010600Y060210D03*
D28*
X025025Y060895D03*
X026145Y060895D03*
X046440Y046660D03*
X047560Y046660D03*
D29*
X038250Y046640D03*
X038250Y046450D03*
X038250Y046250D03*
X038250Y046050D03*
X038250Y045860D03*
X038250Y045660D03*
X038250Y045460D03*
X038250Y045270D03*
X038250Y045070D03*
X038250Y044870D03*
X038250Y044680D03*
X038250Y044480D03*
X038250Y044280D03*
X038250Y044090D03*
X038250Y043890D03*
X038250Y043690D03*
X038250Y043490D03*
X038250Y043300D03*
X038250Y046840D03*
X038250Y047040D03*
X038250Y047230D03*
X038250Y047430D03*
X038250Y047630D03*
X038250Y047830D03*
X038250Y048020D03*
X032250Y048020D03*
X032250Y047830D03*
X032250Y047630D03*
X032250Y047430D03*
X032250Y047230D03*
X032250Y047040D03*
X032250Y046840D03*
X032250Y046640D03*
X032250Y046450D03*
X032250Y046250D03*
X032250Y046050D03*
X032250Y045860D03*
X032250Y045660D03*
X032250Y045460D03*
X032250Y045270D03*
X032250Y045070D03*
X032250Y044870D03*
X032250Y044680D03*
X032250Y044480D03*
X032250Y044280D03*
X032250Y044090D03*
X032250Y043890D03*
X032250Y043690D03*
X032250Y043490D03*
X032250Y043300D03*
D30*
X032890Y042660D03*
X033080Y042660D03*
X033280Y042660D03*
X033480Y042660D03*
X033680Y042660D03*
X033870Y042660D03*
X034070Y042660D03*
X034270Y042660D03*
X034460Y042660D03*
X034660Y042660D03*
X034860Y042660D03*
X035050Y042660D03*
X035250Y042660D03*
X035450Y042660D03*
X035640Y042660D03*
X035840Y042660D03*
X036040Y042660D03*
X036230Y042660D03*
X036430Y042660D03*
X036630Y042660D03*
X036820Y042660D03*
X037020Y042660D03*
X037220Y042660D03*
X037420Y042660D03*
X037610Y042660D03*
X037610Y048660D03*
X037420Y048660D03*
X037220Y048660D03*
X037020Y048660D03*
X036820Y048660D03*
X036630Y048660D03*
X036430Y048660D03*
X036230Y048660D03*
X036040Y048660D03*
X035840Y048660D03*
X035640Y048660D03*
X035450Y048660D03*
X035250Y048660D03*
X035050Y048660D03*
X034860Y048660D03*
X034660Y048660D03*
X034460Y048660D03*
X034270Y048660D03*
X034070Y048660D03*
X033870Y048660D03*
X033680Y048660D03*
X033480Y048660D03*
X033280Y048660D03*
X033080Y048660D03*
X032890Y048660D03*
D31*
X024250Y046297D03*
X024250Y044723D03*
X011600Y045873D03*
X011600Y047447D03*
D32*
X040555Y057645D03*
D33*
X039555Y057645D03*
X038555Y057645D03*
X037555Y057645D03*
X036555Y057645D03*
X036555Y056645D03*
X037555Y056645D03*
X038555Y056645D03*
X039555Y056645D03*
X040555Y056645D03*
X035555Y056645D03*
X034555Y056645D03*
X033555Y056645D03*
X032555Y056645D03*
X031555Y056645D03*
X031555Y057645D03*
X032555Y057645D03*
X033555Y057645D03*
X034555Y057645D03*
X035555Y057645D03*
D34*
X044640Y038550D03*
X044640Y038360D03*
X044640Y038160D03*
X044640Y037960D03*
X044640Y037770D03*
X046360Y037770D03*
X046360Y037960D03*
X046360Y038160D03*
X046360Y038360D03*
X046360Y038550D03*
X043610Y033850D03*
X043610Y033660D03*
X043610Y033460D03*
X043610Y033260D03*
X043610Y033070D03*
X041890Y033070D03*
X041890Y033260D03*
X041890Y033460D03*
X041890Y033660D03*
X041890Y033850D03*
D35*
X058420Y043770D03*
X058420Y044770D03*
X058420Y045770D03*
X060360Y035440D03*
X060360Y034440D03*
X060360Y033440D03*
X068190Y026370D03*
X068190Y025370D03*
X068190Y024370D03*
D36*
X064320Y025370D03*
X064230Y034440D03*
X062290Y044770D03*
D37*
X057860Y028470D03*
X056860Y028470D03*
X055860Y028470D03*
D38*
X056860Y024600D03*
D39*
X067680Y040085D03*
X067680Y041085D03*
X067680Y042085D03*
D40*
X071000Y041085D03*
D41*
X054750Y042290D03*
X054250Y042290D03*
X053750Y042290D03*
X053250Y042290D03*
X052750Y042290D03*
X052250Y042290D03*
X051750Y042290D03*
X051750Y044230D03*
X052250Y044230D03*
X052750Y044230D03*
X053250Y044230D03*
X053750Y044230D03*
X054250Y044230D03*
X054750Y044230D03*
D42*
X056920Y041610D02*
X057480Y041610D01*
X057480Y040610D02*
X056920Y040610D01*
X056820Y039610D02*
X057380Y039610D01*
X057380Y038610D02*
X056820Y038610D01*
X058800Y037040D02*
X059360Y037040D01*
X059360Y036040D02*
X058800Y036040D01*
X058880Y034310D02*
X058320Y034310D01*
X058320Y033310D02*
X058880Y033310D01*
X058480Y030910D02*
X057920Y030910D01*
X057920Y029910D02*
X058480Y029910D01*
X054950Y031730D02*
X054950Y032290D01*
X053950Y032290D02*
X053950Y031730D01*
X052960Y032990D02*
X052960Y033550D01*
X051960Y033550D02*
X051960Y032990D01*
X052210Y034640D02*
X052210Y035200D01*
X053210Y035200D02*
X053210Y034640D01*
X053000Y036430D02*
X053000Y036990D01*
X052000Y036990D02*
X052000Y036430D01*
X045000Y040830D02*
X045000Y041390D01*
X044000Y041390D02*
X044000Y040830D01*
X048965Y049170D02*
X048965Y049730D01*
X048430Y050560D02*
X047870Y050560D01*
X047870Y051560D02*
X048430Y051560D01*
X049500Y052315D02*
X049500Y052875D01*
X050500Y052875D02*
X050500Y052315D01*
X050880Y050735D02*
X051440Y050735D01*
X051440Y049735D02*
X050880Y049735D01*
X049965Y049730D02*
X049965Y049170D01*
X052155Y051950D02*
X052715Y051950D01*
X052715Y052950D02*
X052155Y052950D01*
X052000Y054360D02*
X052000Y054920D01*
X051000Y054920D02*
X051000Y054360D01*
X054315Y054165D02*
X054875Y054165D01*
X054875Y055165D02*
X054315Y055165D01*
X059335Y058875D02*
X059895Y058875D01*
X059895Y059875D02*
X059335Y059875D01*
X059335Y060875D02*
X059895Y060875D01*
X062135Y061840D02*
X062135Y062400D01*
X063135Y062400D02*
X063135Y061840D01*
X068860Y061640D02*
X069420Y061640D01*
X069420Y060640D02*
X068860Y060640D01*
X068860Y059640D02*
X069420Y059640D01*
X072660Y061660D02*
X072660Y062220D01*
X073660Y062220D02*
X073660Y061660D01*
X078440Y061090D02*
X079000Y061090D01*
X079000Y060090D02*
X078440Y060090D01*
X078440Y059090D02*
X079000Y059090D01*
X079120Y056690D02*
X079120Y056130D01*
X078120Y056130D02*
X078120Y056690D01*
X072985Y053930D02*
X072425Y053930D01*
X072425Y052930D02*
X072985Y052930D01*
X070410Y056025D02*
X070410Y056585D01*
X069410Y056585D02*
X069410Y056025D01*
X064010Y055100D02*
X063450Y055100D01*
X063450Y054100D02*
X064010Y054100D01*
X060915Y055755D02*
X060915Y056315D01*
X059915Y056315D02*
X059915Y055755D01*
X053600Y061110D02*
X053600Y061670D01*
X052600Y061670D02*
X052600Y061110D01*
X064570Y040960D02*
X065130Y040960D01*
X065130Y039960D02*
X064570Y039960D01*
X073530Y036360D02*
X074090Y036360D01*
X074090Y035360D02*
X073530Y035360D01*
X064380Y029210D02*
X063820Y029210D01*
X063820Y028210D02*
X064380Y028210D01*
X071600Y022990D02*
X071600Y022430D01*
X072600Y022430D02*
X072600Y022990D01*
X075925Y009660D02*
X076485Y009660D01*
X076485Y008660D02*
X075925Y008660D01*
X078395Y008580D02*
X078955Y008580D01*
X078955Y009580D02*
X078395Y009580D01*
X053900Y010030D02*
X053900Y010590D01*
X052900Y010590D02*
X052900Y010030D01*
X051900Y010030D02*
X051900Y010590D01*
X043245Y010855D02*
X043245Y011415D01*
X042245Y011415D02*
X042245Y010855D01*
X041245Y010855D02*
X041245Y011415D01*
X044170Y017110D02*
X044730Y017110D01*
X044730Y018110D02*
X044170Y018110D01*
X044170Y019110D02*
X044730Y019110D01*
X032925Y011510D02*
X032925Y010950D01*
X031925Y010950D02*
X031925Y011510D01*
X030925Y011510D02*
X030925Y010950D01*
X020290Y012305D02*
X020290Y012865D01*
X019290Y012865D02*
X019290Y012305D01*
X018290Y012305D02*
X018290Y012865D01*
X011980Y008810D02*
X011420Y008810D01*
X011420Y007810D02*
X011980Y007810D01*
X011980Y006810D02*
X011420Y006810D01*
X011520Y017510D02*
X012080Y017510D01*
X012080Y018510D02*
X011520Y018510D01*
X011520Y019510D02*
X012080Y019510D01*
X020825Y029635D02*
X021385Y029635D01*
X021385Y030635D02*
X020825Y030635D01*
X020110Y030975D02*
X019550Y030975D01*
X020825Y031635D02*
X021385Y031635D01*
X020110Y031975D02*
X019550Y031975D01*
X019550Y032975D02*
X020110Y032975D01*
X019930Y034370D02*
X019930Y034930D01*
X018930Y034930D02*
X018930Y034370D01*
X018140Y033540D02*
X017580Y033540D01*
X017580Y032540D02*
X018140Y032540D01*
X018140Y031540D02*
X017580Y031540D01*
X016115Y032645D02*
X015555Y032645D01*
X015555Y033645D02*
X016115Y033645D01*
X016115Y034645D02*
X015555Y034645D01*
X014815Y035810D02*
X014255Y035810D01*
X014255Y036810D02*
X014815Y036810D01*
X014815Y037810D02*
X014255Y037810D01*
X013350Y040380D02*
X013350Y040940D01*
X012350Y040940D02*
X012350Y040380D01*
X017665Y037760D02*
X018225Y037760D01*
X018225Y036760D02*
X017665Y036760D01*
X017665Y035760D02*
X018225Y035760D01*
X020930Y034930D02*
X020930Y034370D01*
X013180Y031910D02*
X012620Y031910D01*
X012620Y030910D02*
X013180Y030910D01*
X013180Y029910D02*
X012620Y029910D01*
X039520Y030170D02*
X040080Y030170D01*
X040080Y031170D02*
X039520Y031170D01*
D43*
X008964Y044364D03*
X008964Y044521D03*
X008964Y044679D03*
X008964Y044836D03*
X008964Y044994D03*
X008964Y045151D03*
X008964Y045309D03*
X008964Y045466D03*
X008964Y045624D03*
X008964Y045781D03*
X008964Y045939D03*
X008964Y046096D03*
X008964Y046254D03*
X008964Y046411D03*
X008964Y046569D03*
X008964Y046726D03*
X008964Y046884D03*
X008964Y047041D03*
X008964Y047199D03*
X008964Y047356D03*
X004436Y047356D03*
X004436Y047199D03*
X004436Y047041D03*
X004436Y046884D03*
X004436Y046726D03*
X004436Y046569D03*
X004436Y046411D03*
X004436Y046254D03*
X004436Y046096D03*
X004436Y045939D03*
X004436Y045781D03*
X004436Y045624D03*
X004436Y045466D03*
X004436Y045309D03*
X004436Y045151D03*
X004436Y044994D03*
X004436Y044836D03*
X004436Y044679D03*
X004436Y044521D03*
X004436Y044364D03*
D44*
X005204Y043596D03*
X005361Y043596D03*
X005519Y043596D03*
X005676Y043596D03*
X005834Y043596D03*
X005991Y043596D03*
X006149Y043596D03*
X006306Y043596D03*
X006464Y043596D03*
X006621Y043596D03*
X006779Y043596D03*
X006936Y043596D03*
X007094Y043596D03*
X007251Y043596D03*
X007409Y043596D03*
X007566Y043596D03*
X007724Y043596D03*
X007881Y043596D03*
X008039Y043596D03*
X008196Y043596D03*
X008196Y048124D03*
X008039Y048124D03*
X007881Y048124D03*
X007724Y048124D03*
X007566Y048124D03*
X007409Y048124D03*
X007251Y048124D03*
X007094Y048124D03*
X006936Y048124D03*
X006779Y048124D03*
X006621Y048124D03*
X006464Y048124D03*
X006306Y048124D03*
X006149Y048124D03*
X005991Y048124D03*
X005834Y048124D03*
X005676Y048124D03*
X005519Y048124D03*
X005361Y048124D03*
X005204Y048124D03*
D45*
X007250Y055427D03*
X008234Y037163D03*
X008634Y028563D03*
X009484Y026263D03*
X008984Y016963D03*
X008984Y014113D03*
X014247Y008944D03*
X008684Y005463D03*
X023947Y009344D03*
X026547Y008544D03*
X034947Y007994D03*
X037147Y007544D03*
X045597Y007744D03*
X047947Y007794D03*
X047166Y013357D03*
X055897Y007444D03*
X046916Y021857D03*
X034650Y027460D03*
D46*
X006716Y004557D03*
X006716Y005463D03*
X007700Y005463D03*
X007700Y004557D03*
X008684Y004557D03*
X014247Y006976D03*
X015153Y006976D03*
X015153Y007960D03*
X014247Y007960D03*
X015153Y008944D03*
X008984Y013207D03*
X008000Y013207D03*
X007016Y013207D03*
X007016Y014113D03*
X008000Y014113D03*
X008000Y016057D03*
X008000Y016963D03*
X007016Y016963D03*
X007016Y016057D03*
X008984Y016057D03*
X008500Y025357D03*
X008500Y026263D03*
X007516Y026263D03*
X007516Y025357D03*
X009484Y025357D03*
X008634Y027657D03*
X007650Y027657D03*
X006666Y027657D03*
X006666Y028563D03*
X007650Y028563D03*
X007250Y036257D03*
X007250Y037163D03*
X006266Y037163D03*
X006266Y036257D03*
X008234Y036257D03*
X006750Y054543D03*
X005750Y054543D03*
X004750Y054543D03*
X005250Y055427D03*
X006250Y055427D03*
X004226Y055427D03*
X003726Y054543D03*
X003009Y059253D03*
X004009Y059852D03*
X006990Y059253D03*
X007990Y059852D03*
X033863Y032184D03*
X033863Y031397D03*
X034650Y031397D03*
X034650Y030610D03*
X033863Y030610D03*
X033863Y029822D03*
X034650Y029822D03*
X034650Y029035D03*
X033863Y029035D03*
X033863Y028247D03*
X034650Y028247D03*
X033863Y027460D03*
X034650Y032184D03*
X046916Y022763D03*
X047900Y022763D03*
X047900Y021857D03*
X048884Y021857D03*
X048884Y022763D03*
X049134Y014263D03*
X049134Y013357D03*
X048150Y013357D03*
X048150Y014263D03*
X047166Y014263D03*
X046503Y007744D03*
X046503Y006760D03*
X045597Y006760D03*
X045597Y005776D03*
X046503Y005776D03*
X047947Y005826D03*
X048853Y005826D03*
X048853Y006810D03*
X047947Y006810D03*
X048853Y007794D03*
X055897Y006460D03*
X056803Y006460D03*
X056803Y007444D03*
X056803Y005476D03*
X055897Y005476D03*
X038053Y005576D03*
X037147Y005576D03*
X035853Y006026D03*
X034947Y006026D03*
X034947Y007010D03*
X035853Y007010D03*
X035853Y007994D03*
X037147Y006560D03*
X038053Y006560D03*
X038053Y007544D03*
X027453Y007560D03*
X026547Y007560D03*
X026547Y006576D03*
X027453Y006576D03*
X027453Y008544D03*
X024853Y008360D03*
X023947Y008360D03*
X024853Y009344D03*
X024853Y007376D03*
X023947Y007376D03*
D47*
X007750Y057923D03*
X003250Y057923D03*
D48*
X002439Y056722D03*
X008561Y056722D03*
D49*
X055589Y056045D02*
X055589Y055970D01*
X055762Y055970D01*
X055762Y056045D01*
X055589Y056045D01*
X055609Y056008D02*
X055743Y056008D01*
X055845Y056128D02*
X055845Y056301D01*
X055920Y056301D01*
X055920Y056128D01*
X055845Y056128D01*
X055882Y056147D02*
X055882Y056281D01*
X056042Y056301D02*
X056117Y056301D01*
X056117Y056128D01*
X056042Y056128D01*
X056042Y056301D01*
X056079Y056281D02*
X056079Y056147D01*
X056239Y056128D02*
X056239Y056301D01*
X056313Y056301D01*
X056313Y056128D01*
X056239Y056128D01*
X056276Y056147D02*
X056276Y056281D01*
X056435Y056301D02*
X056510Y056301D01*
X056510Y056128D01*
X056435Y056128D01*
X056435Y056301D01*
X056473Y056281D02*
X056473Y056147D01*
X056632Y056128D02*
X056632Y056301D01*
X056707Y056301D01*
X056707Y056128D01*
X056632Y056128D01*
X056670Y056147D02*
X056670Y056281D01*
X056829Y056301D02*
X056904Y056301D01*
X056904Y056128D01*
X056829Y056128D01*
X056829Y056301D01*
X056867Y056281D02*
X056867Y056147D01*
X057026Y056128D02*
X057026Y056301D01*
X057101Y056301D01*
X057101Y056128D01*
X057026Y056128D01*
X057063Y056147D02*
X057063Y056281D01*
X057223Y056301D02*
X057298Y056301D01*
X057298Y056128D01*
X057223Y056128D01*
X057223Y056301D01*
X057260Y056281D02*
X057260Y056147D01*
X057420Y056128D02*
X057420Y056301D01*
X057495Y056301D01*
X057495Y056128D01*
X057420Y056128D01*
X057457Y056147D02*
X057457Y056281D01*
X057617Y056301D02*
X057691Y056301D01*
X057691Y056128D01*
X057617Y056128D01*
X057617Y056301D01*
X057654Y056281D02*
X057654Y056147D01*
X057813Y056128D02*
X057813Y056301D01*
X057888Y056301D01*
X057888Y056128D01*
X057813Y056128D01*
X057851Y056147D02*
X057851Y056281D01*
X058010Y056301D02*
X058085Y056301D01*
X058085Y056128D01*
X058010Y056128D01*
X058010Y056301D01*
X058048Y056281D02*
X058048Y056147D01*
X058168Y056045D02*
X058341Y056045D01*
X058341Y055970D01*
X058168Y055970D01*
X058168Y056045D01*
X058187Y056008D02*
X058321Y056008D01*
X058341Y055848D02*
X058341Y055773D01*
X058168Y055773D01*
X058168Y055848D01*
X058341Y055848D01*
X058321Y055811D02*
X058187Y055811D01*
X058168Y055651D02*
X058341Y055651D01*
X058341Y055577D01*
X058168Y055577D01*
X058168Y055651D01*
X058187Y055614D02*
X058321Y055614D01*
X058341Y055455D02*
X058341Y055380D01*
X058168Y055380D01*
X058168Y055455D01*
X058341Y055455D01*
X058321Y055417D02*
X058187Y055417D01*
X058168Y055258D02*
X058341Y055258D01*
X058341Y055183D01*
X058168Y055183D01*
X058168Y055258D01*
X058187Y055220D02*
X058321Y055220D01*
X058341Y055061D02*
X058341Y054986D01*
X058168Y054986D01*
X058168Y055061D01*
X058341Y055061D01*
X058321Y055023D02*
X058187Y055023D01*
X058168Y054864D02*
X058341Y054864D01*
X058341Y054789D01*
X058168Y054789D01*
X058168Y054864D01*
X058187Y054827D02*
X058321Y054827D01*
X058341Y054667D02*
X058341Y054592D01*
X058168Y054592D01*
X058168Y054667D01*
X058341Y054667D01*
X058321Y054630D02*
X058187Y054630D01*
X058168Y054470D02*
X058341Y054470D01*
X058341Y054395D01*
X058168Y054395D01*
X058168Y054470D01*
X058187Y054433D02*
X058321Y054433D01*
X058341Y054273D02*
X058168Y054273D01*
X058168Y054199D01*
X058341Y054199D01*
X058341Y054273D01*
X058321Y054236D02*
X058187Y054236D01*
X058168Y054077D02*
X058341Y054077D01*
X058341Y054002D01*
X058168Y054002D01*
X058168Y054077D01*
X058187Y054039D02*
X058321Y054039D01*
X058341Y053880D02*
X058341Y053805D01*
X058168Y053805D01*
X058168Y053880D01*
X058341Y053880D01*
X058321Y053842D02*
X058187Y053842D01*
X058085Y053722D02*
X058085Y053549D01*
X058010Y053549D01*
X058010Y053722D01*
X058085Y053722D01*
X058048Y053703D02*
X058048Y053569D01*
X057888Y053549D02*
X057813Y053549D01*
X057813Y053722D01*
X057888Y053722D01*
X057888Y053549D01*
X057851Y053569D02*
X057851Y053703D01*
X057691Y053722D02*
X057691Y053549D01*
X057617Y053549D01*
X057617Y053722D01*
X057691Y053722D01*
X057654Y053703D02*
X057654Y053569D01*
X057495Y053549D02*
X057420Y053549D01*
X057420Y053722D01*
X057495Y053722D01*
X057495Y053549D01*
X057457Y053569D02*
X057457Y053703D01*
X057298Y053722D02*
X057298Y053549D01*
X057223Y053549D01*
X057223Y053722D01*
X057298Y053722D01*
X057260Y053703D02*
X057260Y053569D01*
X057101Y053549D02*
X057026Y053549D01*
X057026Y053722D01*
X057101Y053722D01*
X057101Y053549D01*
X057063Y053569D02*
X057063Y053703D01*
X056904Y053722D02*
X056904Y053549D01*
X056829Y053549D01*
X056829Y053722D01*
X056904Y053722D01*
X056867Y053703D02*
X056867Y053569D01*
X056707Y053549D02*
X056632Y053549D01*
X056632Y053722D01*
X056707Y053722D01*
X056707Y053549D01*
X056670Y053569D02*
X056670Y053703D01*
X056510Y053722D02*
X056510Y053549D01*
X056435Y053549D01*
X056435Y053722D01*
X056510Y053722D01*
X056473Y053703D02*
X056473Y053569D01*
X056313Y053549D02*
X056239Y053549D01*
X056239Y053722D01*
X056313Y053722D01*
X056313Y053549D01*
X056276Y053569D02*
X056276Y053703D01*
X056117Y053722D02*
X056117Y053549D01*
X056042Y053549D01*
X056042Y053722D01*
X056117Y053722D01*
X056079Y053703D02*
X056079Y053569D01*
X055920Y053549D02*
X055845Y053549D01*
X055845Y053722D01*
X055920Y053722D01*
X055920Y053549D01*
X055882Y053569D02*
X055882Y053703D01*
X055762Y053805D02*
X055589Y053805D01*
X055589Y053880D01*
X055762Y053880D01*
X055762Y053805D01*
X055743Y053842D02*
X055609Y053842D01*
X055589Y054002D02*
X055589Y054077D01*
X055762Y054077D01*
X055762Y054002D01*
X055589Y054002D01*
X055609Y054039D02*
X055743Y054039D01*
X055762Y054199D02*
X055589Y054199D01*
X055589Y054273D01*
X055762Y054273D01*
X055762Y054199D01*
X055743Y054236D02*
X055609Y054236D01*
X055589Y054395D02*
X055589Y054470D01*
X055762Y054470D01*
X055762Y054395D01*
X055589Y054395D01*
X055609Y054433D02*
X055743Y054433D01*
X055762Y054592D02*
X055589Y054592D01*
X055589Y054667D01*
X055762Y054667D01*
X055762Y054592D01*
X055743Y054630D02*
X055609Y054630D01*
X055589Y054789D02*
X055589Y054864D01*
X055762Y054864D01*
X055762Y054789D01*
X055589Y054789D01*
X055609Y054827D02*
X055743Y054827D01*
X055762Y054986D02*
X055589Y054986D01*
X055589Y055061D01*
X055762Y055061D01*
X055762Y054986D01*
X055743Y055023D02*
X055609Y055023D01*
X055589Y055183D02*
X055589Y055258D01*
X055762Y055258D01*
X055762Y055183D01*
X055589Y055183D01*
X055609Y055220D02*
X055743Y055220D01*
X055762Y055380D02*
X055589Y055380D01*
X055589Y055455D01*
X055762Y055455D01*
X055762Y055380D01*
X055743Y055417D02*
X055609Y055417D01*
X055589Y055577D02*
X055589Y055651D01*
X055762Y055651D01*
X055762Y055577D01*
X055589Y055577D01*
X055609Y055614D02*
X055743Y055614D01*
X055762Y055773D02*
X055589Y055773D01*
X055589Y055848D01*
X055762Y055848D01*
X055762Y055773D01*
X055743Y055811D02*
X055609Y055811D01*
X065529Y055792D02*
X065529Y055866D01*
X065702Y055866D01*
X065702Y055792D01*
X065529Y055792D01*
X065549Y055829D02*
X065683Y055829D01*
X065702Y055988D02*
X065529Y055988D01*
X065529Y056063D01*
X065702Y056063D01*
X065702Y055988D01*
X065683Y056026D02*
X065549Y056026D01*
X065529Y056185D02*
X065529Y056260D01*
X065702Y056260D01*
X065702Y056185D01*
X065529Y056185D01*
X065549Y056223D02*
X065683Y056223D01*
X065785Y056343D02*
X065785Y056516D01*
X065860Y056516D01*
X065860Y056343D01*
X065785Y056343D01*
X065822Y056362D02*
X065822Y056496D01*
X065982Y056516D02*
X066057Y056516D01*
X066057Y056343D01*
X065982Y056343D01*
X065982Y056516D01*
X066019Y056496D02*
X066019Y056362D01*
X066179Y056343D02*
X066179Y056516D01*
X066253Y056516D01*
X066253Y056343D01*
X066179Y056343D01*
X066216Y056362D02*
X066216Y056496D01*
X066375Y056516D02*
X066450Y056516D01*
X066450Y056343D01*
X066375Y056343D01*
X066375Y056516D01*
X066413Y056496D02*
X066413Y056362D01*
X066572Y056343D02*
X066572Y056516D01*
X066647Y056516D01*
X066647Y056343D01*
X066572Y056343D01*
X066610Y056362D02*
X066610Y056496D01*
X066769Y056516D02*
X066844Y056516D01*
X066844Y056343D01*
X066769Y056343D01*
X066769Y056516D01*
X066807Y056496D02*
X066807Y056362D01*
X066966Y056343D02*
X066966Y056516D01*
X067041Y056516D01*
X067041Y056343D01*
X066966Y056343D01*
X067003Y056362D02*
X067003Y056496D01*
X067163Y056516D02*
X067238Y056516D01*
X067238Y056343D01*
X067163Y056343D01*
X067163Y056516D01*
X067200Y056496D02*
X067200Y056362D01*
X067360Y056343D02*
X067360Y056516D01*
X067435Y056516D01*
X067435Y056343D01*
X067360Y056343D01*
X067397Y056362D02*
X067397Y056496D01*
X067557Y056516D02*
X067631Y056516D01*
X067631Y056343D01*
X067557Y056343D01*
X067557Y056516D01*
X067594Y056496D02*
X067594Y056362D01*
X067753Y056343D02*
X067753Y056516D01*
X067828Y056516D01*
X067828Y056343D01*
X067753Y056343D01*
X067791Y056362D02*
X067791Y056496D01*
X067950Y056516D02*
X068025Y056516D01*
X068025Y056343D01*
X067950Y056343D01*
X067950Y056516D01*
X067988Y056496D02*
X067988Y056362D01*
X068108Y056260D02*
X068281Y056260D01*
X068281Y056185D01*
X068108Y056185D01*
X068108Y056260D01*
X068127Y056223D02*
X068261Y056223D01*
X068281Y056063D02*
X068281Y055988D01*
X068108Y055988D01*
X068108Y056063D01*
X068281Y056063D01*
X068261Y056026D02*
X068127Y056026D01*
X068108Y055866D02*
X068281Y055866D01*
X068281Y055792D01*
X068108Y055792D01*
X068108Y055866D01*
X068127Y055829D02*
X068261Y055829D01*
X068281Y055670D02*
X068281Y055595D01*
X068108Y055595D01*
X068108Y055670D01*
X068281Y055670D01*
X068261Y055632D02*
X068127Y055632D01*
X068108Y055473D02*
X068281Y055473D01*
X068281Y055398D01*
X068108Y055398D01*
X068108Y055473D01*
X068127Y055435D02*
X068261Y055435D01*
X068281Y055276D02*
X068281Y055201D01*
X068108Y055201D01*
X068108Y055276D01*
X068281Y055276D01*
X068261Y055238D02*
X068127Y055238D01*
X068108Y055079D02*
X068281Y055079D01*
X068281Y055004D01*
X068108Y055004D01*
X068108Y055079D01*
X068127Y055042D02*
X068261Y055042D01*
X068281Y054882D02*
X068281Y054807D01*
X068108Y054807D01*
X068108Y054882D01*
X068281Y054882D01*
X068261Y054845D02*
X068127Y054845D01*
X068108Y054685D02*
X068281Y054685D01*
X068281Y054610D01*
X068108Y054610D01*
X068108Y054685D01*
X068127Y054648D02*
X068261Y054648D01*
X068281Y054488D02*
X068281Y054414D01*
X068108Y054414D01*
X068108Y054488D01*
X068281Y054488D01*
X068261Y054451D02*
X068127Y054451D01*
X068108Y054292D02*
X068281Y054292D01*
X068281Y054217D01*
X068108Y054217D01*
X068108Y054292D01*
X068127Y054254D02*
X068261Y054254D01*
X068281Y054095D02*
X068281Y054020D01*
X068108Y054020D01*
X068108Y054095D01*
X068281Y054095D01*
X068261Y054057D02*
X068127Y054057D01*
X068025Y053937D02*
X068025Y053764D01*
X067950Y053764D01*
X067950Y053937D01*
X068025Y053937D01*
X067988Y053918D02*
X067988Y053784D01*
X067828Y053764D02*
X067753Y053764D01*
X067753Y053937D01*
X067828Y053937D01*
X067828Y053764D01*
X067791Y053784D02*
X067791Y053918D01*
X067631Y053937D02*
X067631Y053764D01*
X067557Y053764D01*
X067557Y053937D01*
X067631Y053937D01*
X067594Y053918D02*
X067594Y053784D01*
X067435Y053764D02*
X067360Y053764D01*
X067360Y053937D01*
X067435Y053937D01*
X067435Y053764D01*
X067397Y053784D02*
X067397Y053918D01*
X067238Y053937D02*
X067238Y053764D01*
X067163Y053764D01*
X067163Y053937D01*
X067238Y053937D01*
X067200Y053918D02*
X067200Y053784D01*
X067041Y053764D02*
X066966Y053764D01*
X066966Y053937D01*
X067041Y053937D01*
X067041Y053764D01*
X067003Y053784D02*
X067003Y053918D01*
X066844Y053937D02*
X066844Y053764D01*
X066769Y053764D01*
X066769Y053937D01*
X066844Y053937D01*
X066807Y053918D02*
X066807Y053784D01*
X066647Y053764D02*
X066572Y053764D01*
X066572Y053937D01*
X066647Y053937D01*
X066647Y053764D01*
X066610Y053784D02*
X066610Y053918D01*
X066450Y053937D02*
X066450Y053764D01*
X066375Y053764D01*
X066375Y053937D01*
X066450Y053937D01*
X066413Y053918D02*
X066413Y053784D01*
X066253Y053764D02*
X066179Y053764D01*
X066179Y053937D01*
X066253Y053937D01*
X066253Y053764D01*
X066216Y053784D02*
X066216Y053918D01*
X066057Y053937D02*
X066057Y053764D01*
X065982Y053764D01*
X065982Y053937D01*
X066057Y053937D01*
X066019Y053918D02*
X066019Y053784D01*
X065860Y053764D02*
X065860Y053937D01*
X065785Y053937D01*
X065785Y053764D01*
X065860Y053764D01*
X065822Y053784D02*
X065822Y053918D01*
X065702Y054020D02*
X065529Y054020D01*
X065529Y054095D01*
X065702Y054095D01*
X065702Y054020D01*
X065683Y054057D02*
X065549Y054057D01*
X065529Y054217D02*
X065529Y054292D01*
X065702Y054292D01*
X065702Y054217D01*
X065529Y054217D01*
X065549Y054254D02*
X065683Y054254D01*
X065702Y054414D02*
X065529Y054414D01*
X065529Y054488D01*
X065702Y054488D01*
X065702Y054414D01*
X065683Y054451D02*
X065549Y054451D01*
X065529Y054610D02*
X065529Y054685D01*
X065702Y054685D01*
X065702Y054610D01*
X065529Y054610D01*
X065549Y054648D02*
X065683Y054648D01*
X065702Y054807D02*
X065529Y054807D01*
X065529Y054882D01*
X065702Y054882D01*
X065702Y054807D01*
X065683Y054845D02*
X065549Y054845D01*
X065529Y055004D02*
X065529Y055079D01*
X065702Y055079D01*
X065702Y055004D01*
X065529Y055004D01*
X065549Y055042D02*
X065683Y055042D01*
X065702Y055201D02*
X065529Y055201D01*
X065529Y055276D01*
X065702Y055276D01*
X065702Y055201D01*
X065683Y055238D02*
X065549Y055238D01*
X065529Y055398D02*
X065529Y055473D01*
X065702Y055473D01*
X065702Y055398D01*
X065529Y055398D01*
X065549Y055435D02*
X065683Y055435D01*
X065702Y055595D02*
X065529Y055595D01*
X065529Y055670D01*
X065702Y055670D01*
X065702Y055595D01*
X065683Y055632D02*
X065549Y055632D01*
X074269Y055390D02*
X074269Y055315D01*
X074442Y055315D01*
X074442Y055390D01*
X074269Y055390D01*
X074289Y055353D02*
X074423Y055353D01*
X074525Y055473D02*
X074525Y055646D01*
X074600Y055646D01*
X074600Y055473D01*
X074525Y055473D01*
X074562Y055492D02*
X074562Y055626D01*
X074722Y055646D02*
X074797Y055646D01*
X074797Y055473D01*
X074722Y055473D01*
X074722Y055646D01*
X074759Y055626D02*
X074759Y055492D01*
X074919Y055473D02*
X074919Y055646D01*
X074993Y055646D01*
X074993Y055473D01*
X074919Y055473D01*
X074956Y055492D02*
X074956Y055626D01*
X075115Y055646D02*
X075190Y055646D01*
X075190Y055473D01*
X075115Y055473D01*
X075115Y055646D01*
X075153Y055626D02*
X075153Y055492D01*
X075312Y055473D02*
X075312Y055646D01*
X075387Y055646D01*
X075387Y055473D01*
X075312Y055473D01*
X075350Y055492D02*
X075350Y055626D01*
X075509Y055646D02*
X075584Y055646D01*
X075584Y055473D01*
X075509Y055473D01*
X075509Y055646D01*
X075547Y055626D02*
X075547Y055492D01*
X075706Y055473D02*
X075706Y055646D01*
X075781Y055646D01*
X075781Y055473D01*
X075706Y055473D01*
X075743Y055492D02*
X075743Y055626D01*
X075903Y055646D02*
X075978Y055646D01*
X075978Y055473D01*
X075903Y055473D01*
X075903Y055646D01*
X075940Y055626D02*
X075940Y055492D01*
X076100Y055473D02*
X076100Y055646D01*
X076175Y055646D01*
X076175Y055473D01*
X076100Y055473D01*
X076137Y055492D02*
X076137Y055626D01*
X076297Y055646D02*
X076371Y055646D01*
X076371Y055473D01*
X076297Y055473D01*
X076297Y055646D01*
X076334Y055626D02*
X076334Y055492D01*
X076493Y055473D02*
X076493Y055646D01*
X076568Y055646D01*
X076568Y055473D01*
X076493Y055473D01*
X076531Y055492D02*
X076531Y055626D01*
X076690Y055646D02*
X076765Y055646D01*
X076765Y055473D01*
X076690Y055473D01*
X076690Y055646D01*
X076728Y055626D02*
X076728Y055492D01*
X076848Y055390D02*
X077021Y055390D01*
X077021Y055315D01*
X076848Y055315D01*
X076848Y055390D01*
X076867Y055353D02*
X077001Y055353D01*
X077021Y055193D02*
X077021Y055118D01*
X076848Y055118D01*
X076848Y055193D01*
X077021Y055193D01*
X077001Y055156D02*
X076867Y055156D01*
X076848Y054996D02*
X077021Y054996D01*
X077021Y054922D01*
X076848Y054922D01*
X076848Y054996D01*
X076867Y054959D02*
X077001Y054959D01*
X077021Y054800D02*
X077021Y054725D01*
X076848Y054725D01*
X076848Y054800D01*
X077021Y054800D01*
X077001Y054762D02*
X076867Y054762D01*
X076848Y054603D02*
X077021Y054603D01*
X077021Y054528D01*
X076848Y054528D01*
X076848Y054603D01*
X076867Y054565D02*
X077001Y054565D01*
X077021Y054406D02*
X077021Y054331D01*
X076848Y054331D01*
X076848Y054406D01*
X077021Y054406D01*
X077001Y054368D02*
X076867Y054368D01*
X076848Y054209D02*
X077021Y054209D01*
X077021Y054134D01*
X076848Y054134D01*
X076848Y054209D01*
X076867Y054172D02*
X077001Y054172D01*
X077021Y054012D02*
X077021Y053937D01*
X076848Y053937D01*
X076848Y054012D01*
X077021Y054012D01*
X077001Y053975D02*
X076867Y053975D01*
X076848Y053815D02*
X077021Y053815D01*
X077021Y053740D01*
X076848Y053740D01*
X076848Y053815D01*
X076867Y053778D02*
X077001Y053778D01*
X077021Y053618D02*
X077021Y053544D01*
X076848Y053544D01*
X076848Y053618D01*
X077021Y053618D01*
X077001Y053581D02*
X076867Y053581D01*
X076848Y053422D02*
X077021Y053422D01*
X077021Y053347D01*
X076848Y053347D01*
X076848Y053422D01*
X076867Y053384D02*
X077001Y053384D01*
X077021Y053225D02*
X077021Y053150D01*
X076848Y053150D01*
X076848Y053225D01*
X077021Y053225D01*
X077001Y053187D02*
X076867Y053187D01*
X076765Y053067D02*
X076765Y052894D01*
X076690Y052894D01*
X076690Y053067D01*
X076765Y053067D01*
X076728Y053048D02*
X076728Y052914D01*
X076568Y052894D02*
X076493Y052894D01*
X076493Y053067D01*
X076568Y053067D01*
X076568Y052894D01*
X076531Y052914D02*
X076531Y053048D01*
X076371Y053067D02*
X076371Y052894D01*
X076297Y052894D01*
X076297Y053067D01*
X076371Y053067D01*
X076334Y053048D02*
X076334Y052914D01*
X076175Y052894D02*
X076100Y052894D01*
X076100Y053067D01*
X076175Y053067D01*
X076175Y052894D01*
X076137Y052914D02*
X076137Y053048D01*
X075978Y053067D02*
X075978Y052894D01*
X075903Y052894D01*
X075903Y053067D01*
X075978Y053067D01*
X075940Y053048D02*
X075940Y052914D01*
X075781Y052894D02*
X075706Y052894D01*
X075706Y053067D01*
X075781Y053067D01*
X075781Y052894D01*
X075743Y052914D02*
X075743Y053048D01*
X075584Y053067D02*
X075584Y052894D01*
X075509Y052894D01*
X075509Y053067D01*
X075584Y053067D01*
X075547Y053048D02*
X075547Y052914D01*
X075387Y052894D02*
X075312Y052894D01*
X075312Y053067D01*
X075387Y053067D01*
X075387Y052894D01*
X075350Y052914D02*
X075350Y053048D01*
X075190Y053067D02*
X075190Y052894D01*
X075115Y052894D01*
X075115Y053067D01*
X075190Y053067D01*
X075153Y053048D02*
X075153Y052914D01*
X074993Y052894D02*
X074919Y052894D01*
X074919Y053067D01*
X074993Y053067D01*
X074993Y052894D01*
X074956Y052914D02*
X074956Y053048D01*
X074797Y053067D02*
X074797Y052894D01*
X074722Y052894D01*
X074722Y053067D01*
X074797Y053067D01*
X074759Y053048D02*
X074759Y052914D01*
X074600Y052894D02*
X074525Y052894D01*
X074525Y053067D01*
X074600Y053067D01*
X074600Y052894D01*
X074562Y052914D02*
X074562Y053048D01*
X074442Y053150D02*
X074269Y053150D01*
X074269Y053225D01*
X074442Y053225D01*
X074442Y053150D01*
X074423Y053187D02*
X074289Y053187D01*
X074269Y053347D02*
X074269Y053422D01*
X074442Y053422D01*
X074442Y053347D01*
X074269Y053347D01*
X074289Y053384D02*
X074423Y053384D01*
X074442Y053544D02*
X074269Y053544D01*
X074269Y053618D01*
X074442Y053618D01*
X074442Y053544D01*
X074423Y053581D02*
X074289Y053581D01*
X074269Y053740D02*
X074269Y053815D01*
X074442Y053815D01*
X074442Y053740D01*
X074269Y053740D01*
X074289Y053778D02*
X074423Y053778D01*
X074442Y053937D02*
X074269Y053937D01*
X074269Y054012D01*
X074442Y054012D01*
X074442Y053937D01*
X074423Y053975D02*
X074289Y053975D01*
X074269Y054134D02*
X074269Y054209D01*
X074442Y054209D01*
X074442Y054134D01*
X074269Y054134D01*
X074289Y054172D02*
X074423Y054172D01*
X074442Y054331D02*
X074269Y054331D01*
X074269Y054406D01*
X074442Y054406D01*
X074442Y054331D01*
X074423Y054368D02*
X074289Y054368D01*
X074269Y054528D02*
X074269Y054603D01*
X074442Y054603D01*
X074442Y054528D01*
X074269Y054528D01*
X074289Y054565D02*
X074423Y054565D01*
X074442Y054725D02*
X074269Y054725D01*
X074269Y054800D01*
X074442Y054800D01*
X074442Y054725D01*
X074423Y054762D02*
X074289Y054762D01*
X074269Y054922D02*
X074269Y054996D01*
X074442Y054996D01*
X074442Y054922D01*
X074269Y054922D01*
X074289Y054959D02*
X074423Y054959D01*
X074442Y055118D02*
X074269Y055118D01*
X074269Y055193D01*
X074442Y055193D01*
X074442Y055118D01*
X074423Y055156D02*
X074289Y055156D01*
D50*
X075645Y054270D03*
X066905Y055140D03*
X056965Y054925D03*
D51*
X057285Y051040D02*
X057285Y050440D01*
X056285Y050440D02*
X056285Y051040D01*
X055285Y051040D02*
X055285Y050440D01*
X054285Y050440D02*
X054285Y051040D01*
X058285Y051040D02*
X058285Y050440D01*
X063150Y051815D02*
X063150Y052415D01*
X064150Y052415D02*
X064150Y051815D01*
X065150Y051815D02*
X065150Y052415D01*
X066150Y052415D02*
X066150Y051815D01*
X067150Y051815D02*
X067150Y052415D01*
X071950Y051285D02*
X071950Y050685D01*
X072950Y050685D02*
X072950Y051285D01*
X073950Y051285D02*
X073950Y050685D01*
X074950Y050685D02*
X074950Y051285D01*
X075950Y051285D02*
X075950Y050685D01*
D52*
X075760Y060433D02*
X075760Y061437D01*
X077320Y061437D02*
X077320Y060433D01*
X067590Y060558D02*
X067590Y061562D01*
X066030Y061562D02*
X066030Y060558D01*
X058145Y060437D02*
X058145Y059433D01*
X056585Y059433D02*
X056585Y060437D01*
X003502Y022849D02*
X002498Y022849D01*
X002498Y021290D02*
X003502Y021290D01*
X003502Y019730D02*
X002498Y019730D01*
X002498Y018171D02*
X003502Y018171D01*
X003302Y011349D02*
X002298Y011349D01*
X002298Y009790D02*
X003302Y009790D01*
X003302Y008230D02*
X002298Y008230D01*
X002298Y006671D02*
X003302Y006671D01*
X018561Y003112D02*
X018561Y002108D01*
X020120Y002108D02*
X020120Y003112D01*
X021680Y003112D02*
X021680Y002108D01*
X023239Y002108D02*
X023239Y003112D01*
X029711Y003012D02*
X029711Y002008D01*
X031270Y002008D02*
X031270Y003012D01*
X032830Y003012D02*
X032830Y002008D01*
X034389Y002008D02*
X034389Y003012D01*
X039211Y002912D02*
X039211Y001908D01*
X040770Y001908D02*
X040770Y002912D01*
X042330Y002912D02*
X042330Y001908D01*
X043889Y001908D02*
X043889Y002912D01*
X050361Y002912D02*
X050361Y001908D01*
X051920Y001908D02*
X051920Y002912D01*
X053480Y002912D02*
X053480Y001908D01*
X055039Y001908D02*
X055039Y002912D01*
X053262Y013891D02*
X052258Y013891D01*
X052258Y015450D02*
X053262Y015450D01*
X053262Y017010D02*
X052258Y017010D01*
X052258Y018569D02*
X053262Y018569D01*
X003302Y029871D02*
X002298Y029871D01*
X002298Y031430D02*
X003302Y031430D01*
X003302Y032990D02*
X002298Y032990D01*
X002298Y034549D02*
X003302Y034549D01*
D53*
X039656Y032834D03*
X039656Y032086D03*
X040483Y032460D03*
X047506Y037936D03*
X048333Y038310D03*
X047506Y038684D03*
X051817Y047360D03*
X052644Y047734D03*
X052644Y046986D03*
X064386Y047266D03*
X064386Y048014D03*
X065213Y047640D03*
X066156Y044419D03*
X066156Y043671D03*
X066983Y044045D03*
X068967Y043875D03*
X069794Y043501D03*
X069794Y044249D03*
X065226Y031734D03*
X066053Y031360D03*
X065226Y030986D03*
X066054Y017394D03*
X066054Y016646D03*
X065227Y017020D03*
X071216Y009644D03*
X071216Y008896D03*
X072043Y009270D03*
X072916Y006754D03*
X072916Y006006D03*
X073743Y006380D03*
X074894Y005314D03*
X074894Y004566D03*
X074067Y004940D03*
X077041Y003379D03*
X077041Y002631D03*
X077868Y003005D03*
X066194Y003146D03*
X065367Y003520D03*
X066194Y003894D03*
D54*
X069255Y014761D03*
X069255Y016139D03*
X053800Y028521D03*
X053800Y029899D03*
X056850Y033271D03*
X056850Y034649D03*
X058211Y038810D03*
X059589Y038810D03*
X063411Y038360D03*
X064789Y038360D03*
X065311Y029210D03*
X066689Y029210D03*
X048250Y031721D03*
X048250Y033099D03*
X046850Y032699D03*
X046850Y031321D03*
X045070Y029044D03*
X045070Y027666D03*
X042799Y030160D03*
X041421Y030160D03*
X041500Y036021D03*
X041500Y037399D03*
X054281Y047430D03*
X055659Y047430D03*
X071181Y058620D03*
X072559Y058620D03*
X062599Y060045D03*
X061221Y060045D03*
X052724Y059175D03*
X051346Y059175D03*
X008250Y041149D03*
X008250Y039771D03*
D55*
X031920Y059510D03*
X031920Y060010D03*
X031920Y060510D03*
X031920Y061010D03*
X033860Y061010D03*
X033860Y060510D03*
X033860Y060010D03*
X033860Y059510D03*
D56*
X058650Y041650D03*
X058650Y040470D03*
X070880Y028390D03*
X070880Y027210D03*
D57*
X031520Y026155D03*
X031520Y025958D03*
X031520Y025761D03*
X031520Y025564D03*
X031520Y025367D03*
X031520Y025171D03*
X031520Y024974D03*
X031520Y024777D03*
X031520Y024580D03*
X031520Y024383D03*
X031520Y024186D03*
X031520Y023990D03*
X031520Y023793D03*
X031520Y023596D03*
X031520Y023399D03*
X031520Y023202D03*
X031520Y023005D03*
X031520Y022808D03*
X031520Y022612D03*
X031520Y022415D03*
X031520Y022218D03*
X031520Y022021D03*
X031520Y021824D03*
X031520Y021627D03*
X031520Y021430D03*
X031520Y021234D03*
X031520Y021037D03*
X031520Y020840D03*
X031520Y020643D03*
X031520Y020446D03*
X031520Y020249D03*
X031520Y020053D03*
X031520Y019856D03*
X031520Y019659D03*
X031520Y019462D03*
X031520Y019265D03*
X022780Y019265D03*
X022780Y019462D03*
X022780Y019659D03*
X022780Y019856D03*
X022780Y020053D03*
X022780Y020249D03*
X022780Y020446D03*
X022780Y020643D03*
X022780Y020840D03*
X022780Y021037D03*
X022780Y021234D03*
X022780Y021430D03*
X022780Y021627D03*
X022780Y021824D03*
X022780Y022021D03*
X022780Y022218D03*
X022780Y022415D03*
X022780Y022612D03*
X022780Y022808D03*
X022780Y023005D03*
X022780Y023202D03*
X022780Y023399D03*
X022780Y023596D03*
X022780Y023793D03*
X022780Y023990D03*
X022780Y024186D03*
X022780Y024383D03*
X022780Y024580D03*
X022780Y024777D03*
X022780Y024974D03*
X022780Y025171D03*
X022780Y025367D03*
X022780Y025564D03*
X022780Y025761D03*
X022780Y025958D03*
X022780Y026155D03*
D58*
X023705Y027080D03*
X023902Y027080D03*
X024099Y027080D03*
X024296Y027080D03*
X024493Y027080D03*
X024689Y027080D03*
X024886Y027080D03*
X025083Y027080D03*
X025280Y027080D03*
X025477Y027080D03*
X025674Y027080D03*
X025870Y027080D03*
X026067Y027080D03*
X026264Y027080D03*
X026461Y027080D03*
X026658Y027080D03*
X026855Y027080D03*
X027052Y027080D03*
X027248Y027080D03*
X027445Y027080D03*
X027642Y027080D03*
X027839Y027080D03*
X028036Y027080D03*
X028233Y027080D03*
X028430Y027080D03*
X028626Y027080D03*
X028823Y027080D03*
X029020Y027080D03*
X029217Y027080D03*
X029414Y027080D03*
X029611Y027080D03*
X029807Y027080D03*
X030004Y027080D03*
X030201Y027080D03*
X030398Y027080D03*
X030595Y027080D03*
X030595Y018340D03*
X030398Y018340D03*
X030201Y018340D03*
X030004Y018340D03*
X029807Y018340D03*
X029611Y018340D03*
X029414Y018340D03*
X029217Y018340D03*
X029020Y018340D03*
X028823Y018340D03*
X028626Y018340D03*
X028430Y018340D03*
X028233Y018340D03*
X028036Y018340D03*
X027839Y018340D03*
X027642Y018340D03*
X027445Y018340D03*
X027248Y018340D03*
X027052Y018340D03*
X026855Y018340D03*
X026658Y018340D03*
X026461Y018340D03*
X026264Y018340D03*
X026067Y018340D03*
X025870Y018340D03*
X025674Y018340D03*
X025477Y018340D03*
X025280Y018340D03*
X025083Y018340D03*
X024886Y018340D03*
X024689Y018340D03*
X024493Y018340D03*
X024296Y018340D03*
X024099Y018340D03*
X023902Y018340D03*
X023705Y018340D03*
D59*
X037434Y027168D03*
X038340Y027168D03*
X039246Y027168D03*
D60*
X038340Y029452D03*
D61*
X046390Y019643D03*
X046890Y019643D03*
X047390Y019643D03*
X047890Y019643D03*
X048390Y019643D03*
X048890Y019643D03*
X049390Y019643D03*
X049890Y019643D03*
X049890Y016078D03*
X049390Y016078D03*
X048890Y016078D03*
X048390Y016078D03*
X047890Y016078D03*
X047390Y016078D03*
X046890Y016078D03*
X046390Y016078D03*
X010050Y019428D03*
X009550Y019428D03*
X009050Y019428D03*
X008550Y019428D03*
X008050Y019428D03*
X007550Y019428D03*
X007050Y019428D03*
X006550Y019428D03*
X006550Y022993D03*
X007050Y022993D03*
X007550Y022993D03*
X008050Y022993D03*
X008550Y022993D03*
X009050Y022993D03*
X009550Y022993D03*
X010050Y022993D03*
X009350Y030628D03*
X008850Y030628D03*
X008350Y030628D03*
X007850Y030628D03*
X007350Y030628D03*
X006850Y030628D03*
X006350Y030628D03*
X005850Y030628D03*
X005850Y034193D03*
X006350Y034193D03*
X006850Y034193D03*
X007350Y034193D03*
X007850Y034193D03*
X008350Y034193D03*
X008850Y034193D03*
X009350Y034193D03*
X009150Y011093D03*
X008650Y011093D03*
X008150Y011093D03*
X007650Y011093D03*
X007150Y011093D03*
X006650Y011093D03*
X006150Y011093D03*
X009650Y011093D03*
X009650Y007528D03*
X009150Y007528D03*
X008650Y007528D03*
X008150Y007528D03*
X007650Y007528D03*
X007150Y007528D03*
X006650Y007528D03*
X006150Y007528D03*
D62*
X017368Y007660D03*
X017368Y008160D03*
X017368Y008660D03*
X017368Y009160D03*
X017368Y009660D03*
X017368Y007160D03*
X017368Y006660D03*
X017368Y006160D03*
X020933Y006160D03*
X020933Y006660D03*
X020933Y007160D03*
X020933Y007660D03*
X020933Y008160D03*
X020933Y008660D03*
X020933Y009160D03*
X020933Y009660D03*
X029568Y009410D03*
X029568Y008910D03*
X029568Y008410D03*
X029568Y007910D03*
X029568Y007410D03*
X029568Y006910D03*
X029568Y006410D03*
X029568Y005910D03*
X033133Y005910D03*
X033133Y006410D03*
X033133Y006910D03*
X033133Y007410D03*
X033133Y007910D03*
X033133Y008410D03*
X033133Y008910D03*
X033133Y009410D03*
X039968Y008460D03*
X039968Y007960D03*
X039968Y007460D03*
X039968Y006960D03*
X039968Y006460D03*
X039968Y005960D03*
X039968Y005460D03*
X039968Y004960D03*
X043533Y004960D03*
X043533Y005460D03*
X043533Y005960D03*
X043533Y006460D03*
X043533Y006960D03*
X043533Y007460D03*
X043533Y007960D03*
X043533Y008460D03*
X050618Y008460D03*
X050618Y007960D03*
X050618Y007460D03*
X050618Y006960D03*
X050618Y006460D03*
X050618Y005960D03*
X050618Y005460D03*
X050618Y004960D03*
X054183Y004960D03*
X054183Y005460D03*
X054183Y005960D03*
X054183Y006460D03*
X054183Y006960D03*
X054183Y007460D03*
X054183Y007960D03*
X054183Y008460D03*
X059668Y012130D03*
X059668Y012630D03*
X059668Y013130D03*
X059668Y013630D03*
X059668Y014130D03*
X059668Y014630D03*
X059668Y015130D03*
X059668Y015630D03*
X058928Y017290D03*
X058928Y017790D03*
X058928Y018290D03*
X058928Y018790D03*
X058928Y019290D03*
X058928Y019790D03*
X058928Y020290D03*
X058928Y020790D03*
X062493Y020790D03*
X062493Y020290D03*
X062493Y019790D03*
X062493Y019290D03*
X062493Y018790D03*
X062493Y018290D03*
X062493Y017790D03*
X062493Y017290D03*
X063233Y015630D03*
X063233Y015130D03*
X063233Y014630D03*
X063233Y014130D03*
X063233Y013630D03*
X063233Y013130D03*
X063233Y012630D03*
X063233Y012130D03*
D63*
X033200Y035525D02*
X032680Y035525D01*
X032680Y036525D02*
X033200Y036525D01*
X033200Y037525D02*
X032680Y037525D01*
X032680Y038525D02*
X033200Y038525D01*
X033200Y039525D02*
X032680Y039525D01*
X022130Y046000D02*
X022130Y046520D01*
X021130Y046520D02*
X021130Y046000D01*
X020130Y046000D02*
X020130Y046520D01*
X019130Y046520D02*
X019130Y046000D01*
X018130Y046000D02*
X018130Y046520D01*
D64*
X031465Y038430D03*
X031465Y037310D03*
X076490Y007470D03*
X076490Y006350D03*
X079025Y002635D03*
X079025Y001515D03*
D65*
X041830Y022180D03*
X041000Y022905D03*
X039970Y023420D03*
X040720Y024650D03*
X040410Y025600D03*
X042200Y024110D03*
X039735Y022225D03*
X038500Y022580D03*
X038895Y023845D03*
X037265Y025185D03*
X035970Y025235D03*
X036070Y026340D03*
X034650Y025790D03*
X034590Y022140D03*
X035630Y022040D03*
X036620Y021720D03*
X037850Y021000D03*
X040820Y021335D03*
X032650Y014410D03*
X031300Y013560D03*
X031150Y014660D03*
X031600Y015760D03*
X030050Y016110D03*
X029850Y014910D03*
X028850Y014060D03*
X030050Y013410D03*
X028750Y012960D03*
X030840Y012450D03*
X027050Y014960D03*
X027150Y016060D03*
X025250Y015910D03*
X025350Y014760D03*
X025220Y013775D03*
X026840Y013760D03*
X025016Y012149D03*
X023660Y012040D03*
X024260Y010970D03*
X025685Y010920D03*
X026600Y010310D03*
X017090Y021290D03*
X016250Y022110D03*
X017750Y022770D03*
X018300Y021610D03*
X016150Y023510D03*
X016600Y024460D03*
X018665Y025065D03*
X019550Y024110D03*
X020650Y024060D03*
X020235Y025675D03*
X019945Y026985D03*
X019275Y027760D03*
X017855Y027290D03*
X017070Y028015D03*
X016845Y026790D03*
X017920Y026050D03*
X014400Y025160D03*
X014550Y022260D03*
X022820Y028280D03*
X022425Y029775D03*
X027245Y031245D03*
X028450Y031410D03*
X027850Y032360D03*
X029100Y033310D03*
X029650Y032210D03*
X029900Y031160D03*
X030800Y030660D03*
X031650Y030160D03*
X028250Y029710D03*
X035765Y033505D03*
X035745Y035380D03*
X043870Y042860D03*
X045040Y043080D03*
X046210Y043340D03*
X047470Y044230D03*
X046530Y044855D03*
X045320Y044550D03*
D66*
X070460Y017435D03*
X073460Y017435D03*
X075460Y017435D03*
X077460Y017435D03*
X077460Y014435D03*
X075460Y014435D03*
X073460Y014435D03*
X070460Y014435D03*
D67*
X072851Y011268D03*
X072851Y011012D03*
X072851Y010756D03*
X072851Y010500D03*
X072851Y010244D03*
X072851Y009988D03*
X072851Y009732D03*
X075149Y009732D03*
X075149Y009988D03*
X075149Y010244D03*
X075149Y010500D03*
X075149Y010756D03*
X075149Y011012D03*
X075149Y011268D03*
D68*
X078446Y003405D03*
X079194Y003405D03*
D69*
X069962Y008576D03*
X069962Y009324D03*
X068942Y009324D03*
X068942Y008950D03*
X068942Y008576D03*
X063028Y009586D03*
X063028Y009960D03*
X063028Y010334D03*
X062008Y010334D03*
X062008Y009586D03*
D70*
X069000Y006233D03*
X069374Y005406D03*
X068626Y005406D03*
X059574Y001166D03*
X058826Y001166D03*
X059200Y001993D03*
D71*
X067635Y014418D03*
X067635Y016032D03*
X077920Y007272D03*
X078790Y007097D03*
X078790Y005483D03*
X077920Y005658D03*
D72*
X068697Y045427D03*
X067043Y045427D03*
X067043Y047593D03*
X068697Y047593D03*
D73*
X070547Y045608D03*
X065193Y045608D03*
D74*
X064570Y009740D03*
X064570Y009240D03*
X064570Y008740D03*
X064570Y008240D03*
X064570Y007740D03*
X064570Y007240D03*
X064570Y006740D03*
X066990Y006740D03*
X066990Y007240D03*
X066990Y007740D03*
X066990Y008240D03*
X066990Y008740D03*
X066990Y009240D03*
X066990Y009740D03*
D75*
X026634Y032466D03*
X026437Y032466D03*
X026241Y032466D03*
X026044Y032466D03*
X025847Y032466D03*
X025650Y032466D03*
X025453Y032466D03*
X025256Y032466D03*
X024719Y032816D03*
X024522Y032816D03*
X024326Y032816D03*
X024129Y032816D03*
X023932Y032816D03*
X023735Y032816D03*
X023538Y032816D03*
X023341Y032816D03*
X023341Y033486D03*
X023538Y033486D03*
X023735Y033486D03*
X023932Y033486D03*
X024129Y033486D03*
X024326Y033486D03*
X024522Y033486D03*
X024719Y033486D03*
X025256Y033136D03*
X025453Y033136D03*
X025650Y033136D03*
X025847Y033136D03*
X026044Y033136D03*
X026241Y033136D03*
X026437Y033136D03*
X026634Y033136D03*
D76*
X054065Y058015D03*
X063645Y058150D03*
X073555Y057450D03*
D77*
X073555Y056450D03*
X072555Y056450D03*
X072555Y057450D03*
X071555Y057450D03*
X071555Y056450D03*
X063645Y057150D03*
X062645Y057150D03*
X062645Y058150D03*
X061645Y058150D03*
X061645Y057150D03*
X054065Y057015D03*
X053065Y057015D03*
X053065Y058015D03*
X052065Y058015D03*
X052065Y057015D03*
D78*
X069900Y036647D03*
D79*
X067380Y033970D03*
X072695Y033970D03*
D80*
X071081Y031647D03*
X068719Y031647D03*
D81*
X030397Y049734D03*
X030397Y050640D03*
X030397Y051546D03*
D82*
X028113Y050640D03*
D83*
X012290Y059340D03*
X012290Y059340D03*
X012290Y059635D03*
X011719Y059635D03*
X011719Y059340D03*
D84*
X017130Y040940D03*
X042410Y052180D03*
X076770Y046940D03*
X069090Y020980D03*
X070290Y002580D03*
X016490Y015820D03*
D85*
X013535Y014925D03*
X009700Y012210D03*
X008150Y012060D03*
X007100Y012060D03*
X005730Y013420D03*
X002900Y014860D03*
X006600Y018360D03*
X006850Y021810D03*
X007650Y023960D03*
X008600Y024010D03*
X010100Y024060D03*
X011605Y022120D03*
X013050Y021840D03*
X006910Y024600D03*
X005900Y029560D03*
X004700Y030710D03*
X006300Y033160D03*
X007000Y035110D03*
X007800Y035360D03*
X009000Y035110D03*
X005490Y035820D03*
X006400Y039960D03*
X006750Y042110D03*
X007450Y044760D03*
X005600Y045460D03*
X006400Y046660D03*
X007500Y046910D03*
X007400Y047560D03*
X007030Y047510D03*
X006950Y048710D03*
X007450Y049210D03*
X008130Y048965D03*
X007050Y049910D03*
X007470Y051900D03*
X010100Y053010D03*
X011600Y052310D03*
X011550Y050310D03*
X010950Y049760D03*
X008440Y047100D03*
X008450Y046280D03*
X010450Y046160D03*
X010500Y044810D03*
X010020Y044480D03*
X009720Y043760D03*
X011990Y044290D03*
X012450Y045510D03*
X014500Y045710D03*
X014650Y044560D03*
X015955Y047590D03*
X016335Y047520D03*
X015980Y048070D03*
X015460Y048200D03*
X019850Y049960D03*
X020170Y050640D03*
X020220Y052110D03*
X019900Y053210D03*
X021300Y054610D03*
X023945Y054840D03*
X026150Y056310D03*
X027395Y055915D03*
X028000Y055915D03*
X027710Y056520D03*
X028595Y056700D03*
X028280Y057325D03*
X030085Y054600D03*
X033330Y052620D03*
X034510Y053300D03*
X034655Y053975D03*
X035150Y053720D03*
X035985Y054030D03*
X036440Y052975D03*
X035610Y052140D03*
X033120Y051560D03*
X031725Y051020D03*
X031890Y049540D03*
X032580Y049230D03*
X034290Y047780D03*
X035530Y048100D03*
X036710Y047860D03*
X037290Y047250D03*
X037540Y045295D03*
X037520Y044730D03*
X037010Y043420D03*
X036490Y043340D03*
X035630Y044220D03*
X034590Y043900D03*
X033710Y043560D03*
X032810Y043620D03*
X033030Y044370D03*
X033110Y044880D03*
X033050Y045660D03*
X033190Y046200D03*
X033050Y047020D03*
X036470Y049560D03*
X042070Y045860D03*
X042400Y045020D03*
X043760Y045265D03*
X043980Y045940D03*
X043710Y046195D03*
X045210Y046350D03*
X043680Y047910D03*
X048670Y046940D03*
X049050Y047281D03*
X050285Y046660D03*
X051020Y047170D03*
X050550Y047580D03*
X052200Y046370D03*
X053785Y048080D03*
X056540Y047625D03*
X056960Y046855D03*
X057805Y046515D03*
X056770Y044410D03*
X055990Y042640D03*
X053950Y043460D03*
X053100Y043260D03*
X051290Y042740D03*
X051750Y041210D03*
X050890Y041060D03*
X052400Y039510D03*
X053450Y040020D03*
X054140Y039360D03*
X053550Y038610D03*
X054550Y038460D03*
X056330Y037780D03*
X055900Y036110D03*
X055300Y036010D03*
X053770Y036020D03*
X051230Y037280D03*
X052315Y037760D03*
X048950Y038310D03*
X048200Y039510D03*
X046450Y039210D03*
X046450Y040310D03*
X043900Y038710D03*
X043400Y039490D03*
X041550Y038060D03*
X041195Y040390D03*
X039360Y040350D03*
X038750Y042320D03*
X033410Y041420D03*
X032580Y040820D03*
X030740Y039800D03*
X027210Y038880D03*
X026890Y039120D03*
X026550Y039300D03*
X025665Y038135D03*
X025245Y038120D03*
X025450Y037420D03*
X024985Y036850D03*
X024530Y037780D03*
X024150Y037680D03*
X023890Y036840D03*
X023630Y036600D03*
X023290Y036120D03*
X023050Y035460D03*
X023520Y035400D03*
X024970Y035340D03*
X020610Y035980D03*
X019995Y036890D03*
X020970Y041600D03*
X022550Y043580D03*
X025730Y044720D03*
X026550Y045720D03*
X026210Y045970D03*
X026910Y046260D03*
X027210Y046505D03*
X027405Y047220D03*
X026330Y048160D03*
X025450Y049300D03*
X026330Y049480D03*
X026330Y050620D03*
X023850Y052260D03*
X024950Y047780D03*
X022255Y047305D03*
X011005Y041755D03*
X010875Y040010D03*
X012380Y036330D03*
X018345Y028685D03*
X024230Y024960D03*
X024070Y024120D03*
X023510Y022520D03*
X023790Y020960D03*
X024270Y020380D03*
X025095Y020845D03*
X025190Y019500D03*
X025910Y019180D03*
X026750Y019140D03*
X027080Y019310D03*
X027430Y019180D03*
X028910Y019120D03*
X029810Y019020D03*
X030530Y019480D03*
X032430Y017680D03*
X035370Y019900D03*
X033920Y021900D03*
X032315Y022440D03*
X030410Y022480D03*
X030470Y021960D03*
X030510Y024280D03*
X029867Y024820D03*
X029788Y026015D03*
X031600Y026660D03*
X032750Y025810D03*
X037315Y028230D03*
X038670Y027960D03*
X043210Y030820D03*
X045150Y030160D03*
X047800Y030410D03*
X048410Y028300D03*
X051730Y029940D03*
X052230Y031320D03*
X058200Y031410D03*
X061240Y032430D03*
X061570Y034580D03*
X061570Y035540D03*
X060330Y037940D03*
X062050Y038940D03*
X060750Y040060D03*
X061140Y040810D03*
X062100Y040560D03*
X060850Y041760D03*
X059310Y043020D03*
X056350Y041010D03*
X054450Y040640D03*
X049770Y043540D03*
X049550Y043280D03*
X050275Y045225D03*
X049870Y045660D03*
X057580Y049590D03*
X060055Y049420D03*
X060510Y049960D03*
X061410Y050380D03*
X061440Y051040D03*
X061770Y052700D03*
X063615Y051115D03*
X062310Y049145D03*
X066140Y045190D03*
X066190Y043215D03*
X068000Y042560D03*
X069400Y043370D03*
X072370Y045730D03*
X072890Y045460D03*
X074085Y046100D03*
X071850Y047550D03*
X074585Y048370D03*
X072410Y050300D03*
X071020Y050720D03*
X069785Y049960D03*
X068875Y049665D03*
X068450Y053210D03*
X068563Y054850D03*
X064605Y055900D03*
X064605Y057615D03*
X065930Y058915D03*
X067090Y059150D03*
X067430Y059295D03*
X068850Y058175D03*
X069555Y058215D03*
X073350Y055305D03*
X073890Y055620D03*
X073890Y054940D03*
X076395Y056930D03*
X077585Y055235D03*
X077315Y053890D03*
X077295Y052550D03*
X079204Y049881D03*
X078345Y049375D03*
X077615Y048915D03*
X078720Y057385D03*
X076275Y058690D03*
X075185Y058305D03*
X074535Y061140D03*
X064810Y062010D03*
X063835Y060505D03*
X062182Y059204D03*
X060440Y057285D03*
X059230Y056555D03*
X058775Y058265D03*
X057285Y058635D03*
X055515Y060245D03*
X059900Y062170D03*
X059965Y061735D03*
X062450Y055050D03*
X059840Y054240D03*
X059235Y053365D03*
X058755Y053645D03*
X058755Y054645D03*
X055315Y054885D03*
X051850Y053810D03*
X050180Y054385D03*
X047120Y054870D03*
X046390Y053665D03*
X040590Y059040D03*
X043250Y059585D03*
X043170Y060620D03*
X036710Y062010D03*
X034610Y059020D03*
X024700Y058380D03*
X024730Y057420D03*
X023150Y061210D03*
X004050Y053510D03*
X003795Y051000D03*
X001675Y049460D03*
X001665Y046945D03*
X001900Y045120D03*
X025230Y028220D03*
X026530Y028280D03*
X026790Y026300D03*
X026070Y026280D03*
X027755Y026265D03*
X021410Y022620D03*
X021170Y011820D03*
X022650Y011820D03*
X021000Y010110D03*
X022650Y009060D03*
X023200Y009410D03*
X021900Y007160D03*
X023200Y006210D03*
X022810Y005500D03*
X022400Y004810D03*
X021970Y005500D03*
X018770Y006160D03*
X016400Y007610D03*
X016450Y009160D03*
X016130Y009540D03*
X017500Y010160D03*
X018770Y011620D03*
X018930Y008580D03*
X012340Y011430D03*
X009650Y010020D03*
X006200Y010210D03*
X006150Y006160D03*
X010400Y003710D03*
X016301Y002821D03*
X027850Y005500D03*
X030350Y005910D03*
X030350Y007410D03*
X031550Y007260D03*
X032250Y007910D03*
X031950Y009410D03*
X030500Y008910D03*
X028810Y009460D03*
X028930Y010420D03*
X033950Y006360D03*
X033650Y005310D03*
X032050Y005860D03*
X034900Y009060D03*
X039050Y006510D03*
X039100Y007960D03*
X042450Y008410D03*
X042500Y007410D03*
X044450Y007010D03*
X044650Y005910D03*
X046050Y004410D03*
X048090Y004260D03*
X049750Y006460D03*
X049850Y007960D03*
X049400Y008660D03*
X049605Y010405D03*
X053305Y012030D03*
X050890Y013460D03*
X051210Y014700D03*
X049900Y016860D03*
X048400Y015160D03*
X046900Y015360D03*
X045450Y015560D03*
X042330Y017660D03*
X043580Y020445D03*
X044570Y023900D03*
X047900Y020760D03*
X049550Y021310D03*
X049800Y020710D03*
X050550Y024780D03*
X051290Y024840D03*
X051030Y025400D03*
X051370Y025520D03*
X051690Y025740D03*
X052030Y025940D03*
X052390Y025960D03*
X052790Y025220D03*
X053900Y026110D03*
X060150Y027710D03*
X069340Y034160D03*
X071250Y032940D03*
X071730Y029420D03*
X069600Y026210D03*
X070600Y025210D03*
X068110Y018240D03*
X066890Y017760D03*
X065220Y018200D03*
X064240Y016420D03*
X062950Y016840D03*
X062270Y015700D03*
X062240Y015130D03*
X064620Y014630D03*
X066230Y014640D03*
X064170Y012590D03*
X063150Y011160D03*
X062220Y012130D03*
X061500Y012490D03*
X059070Y011680D03*
X058600Y010060D03*
X055000Y006910D03*
X055000Y005860D03*
X055900Y004860D03*
X059300Y004910D03*
X061500Y004810D03*
X062800Y004060D03*
X064550Y004660D03*
X065500Y004310D03*
X066750Y003810D03*
X063850Y005760D03*
X062200Y006510D03*
X063550Y008460D03*
X065350Y007410D03*
X066150Y007710D03*
X066950Y006360D03*
X067950Y008110D03*
X070500Y009310D03*
X072300Y008460D03*
X072600Y009260D03*
X074150Y010260D03*
X075600Y010260D03*
X075850Y011010D03*
X076810Y010260D03*
X075500Y007660D03*
X077330Y007540D03*
X077450Y006410D03*
X078690Y007660D03*
X072300Y003390D03*
X077950Y001510D03*
X066450Y010210D03*
X064250Y010360D03*
X071350Y011310D03*
X061570Y017790D03*
X061360Y020180D03*
X057770Y020240D03*
X058850Y016860D03*
X055405Y015290D03*
X053250Y008460D03*
X053350Y007410D03*
X051450Y004910D03*
X045790Y011410D03*
X043510Y012455D03*
X040890Y012530D03*
X040930Y005180D03*
X040460Y004560D03*
X037410Y004060D03*
X044150Y032950D03*
X043850Y034260D03*
X044570Y034980D03*
X045500Y034510D03*
X045200Y036210D03*
X043610Y036410D03*
X040000Y034910D03*
X036950Y034520D03*
X071075Y038140D03*
X075230Y036920D03*
M02*
