G75*
%MOIN*%
%OFA0B0*%
%FSLAX24Y24*%
%IPPOS*%
%LPD*%
%AMOC8*
5,1,8,0,0,1.08239X$1,22.5*
%
%ADD10C,0.0236*%
%ADD11C,0.0886*%
%ADD12R,0.0886X0.0886*%
%ADD13C,0.1575*%
%ADD14C,0.0660*%
%ADD15C,0.1300*%
%ADD16R,0.0276X0.0354*%
%ADD17R,0.0354X0.0276*%
%ADD18R,0.0394X0.0433*%
%ADD19R,0.0675X0.0675*%
%ADD20C,0.0675*%
%ADD21C,0.0560*%
%ADD22R,0.0433X0.0394*%
%ADD23R,0.0554X0.0554*%
%ADD24C,0.0554*%
%ADD25C,0.1680*%
%ADD26C,0.0945*%
%ADD27C,0.0600*%
%ADD28C,0.1004*%
%ADD29R,0.0591X0.0630*%
%ADD30C,0.0520*%
%ADD31OC8,0.0850*%
%ADD32C,0.0709*%
%ADD33R,0.0827X0.0827*%
%ADD34C,0.1181*%
%ADD35C,0.0600*%
%ADD36OC8,0.0600*%
%ADD37C,0.1417*%
%ADD38C,0.0260*%
D10*
X026220Y021260D03*
D11*
X076201Y027277D03*
X077579Y027277D03*
X077579Y028655D03*
X076201Y028655D03*
X076201Y030033D03*
X077579Y030033D03*
X077579Y031411D03*
X077579Y032777D03*
X076201Y032789D03*
X076201Y034167D03*
X077579Y034167D03*
X077579Y035545D03*
X077579Y036923D03*
X077579Y038301D03*
X076201Y038301D03*
X076201Y036923D03*
X076201Y035545D03*
X076201Y031411D03*
X077579Y025899D03*
D12*
X076201Y025899D03*
D13*
X077170Y023143D03*
X077170Y041057D03*
D14*
X016792Y056430D03*
X016792Y057210D03*
X015808Y057210D03*
X015808Y056430D03*
D15*
X013930Y058280D03*
X018670Y058280D03*
D16*
X033079Y047810D03*
X033591Y047810D03*
X034754Y047720D03*
X035266Y047720D03*
X035739Y047720D03*
X036251Y047720D03*
X037079Y044220D03*
X037591Y044220D03*
X036721Y043730D03*
X036209Y043730D03*
D17*
X037100Y044719D03*
X037100Y045231D03*
X033715Y044621D03*
X033715Y044109D03*
X033625Y045169D03*
X033625Y045681D03*
D18*
X033739Y046339D03*
X033739Y047008D03*
X009900Y046845D03*
X009900Y046175D03*
X008000Y046275D03*
X008000Y046945D03*
X005850Y047195D03*
X005850Y046525D03*
X002640Y051955D03*
X002640Y052625D03*
X002640Y053785D03*
X002640Y054455D03*
X006800Y053845D03*
X006800Y053175D03*
X006950Y060475D03*
X006950Y061145D03*
X023875Y026085D03*
X023875Y025415D03*
X024085Y023665D03*
X024085Y022995D03*
X024750Y023220D03*
X024750Y022550D03*
X024055Y022100D03*
X024055Y021430D03*
X024590Y021515D03*
X024590Y020845D03*
X030260Y020800D03*
X030260Y020130D03*
X032380Y020645D03*
X032380Y021315D03*
X032930Y022265D03*
X032930Y022935D03*
X030350Y023045D03*
X030350Y023715D03*
X030320Y025325D03*
X030320Y025995D03*
X027210Y025850D03*
X027210Y025180D03*
D19*
X040555Y057645D03*
D20*
X039555Y057645D03*
X038555Y057645D03*
X037555Y057645D03*
X036555Y057645D03*
X036555Y056645D03*
X037555Y056645D03*
X038555Y056645D03*
X039555Y056645D03*
X040555Y056645D03*
X035555Y056645D03*
X034555Y056645D03*
X033555Y056645D03*
X032555Y056645D03*
X031555Y056645D03*
X031555Y057645D03*
X032555Y057645D03*
X033555Y057645D03*
X034555Y057645D03*
X035555Y057645D03*
D21*
X047870Y051560D02*
X048430Y051560D01*
X048430Y050560D02*
X047870Y050560D01*
X048965Y049730D02*
X048965Y049170D01*
X049965Y049170D02*
X049965Y049730D01*
X050880Y049735D02*
X051440Y049735D01*
X051440Y050735D02*
X050880Y050735D01*
X050500Y052315D02*
X050500Y052875D01*
X049500Y052875D02*
X049500Y052315D01*
X051000Y054360D02*
X051000Y054920D01*
X052000Y054920D02*
X052000Y054360D01*
X052155Y052950D02*
X052715Y052950D01*
X052715Y051950D02*
X052155Y051950D01*
X054315Y054165D02*
X054875Y054165D01*
X054875Y055165D02*
X054315Y055165D01*
X059335Y058875D02*
X059895Y058875D01*
X059895Y059875D02*
X059335Y059875D01*
X059335Y060875D02*
X059895Y060875D01*
X062135Y061840D02*
X062135Y062400D01*
X063135Y062400D02*
X063135Y061840D01*
X068860Y061640D02*
X069420Y061640D01*
X069420Y060640D02*
X068860Y060640D01*
X068860Y059640D02*
X069420Y059640D01*
X072660Y061660D02*
X072660Y062220D01*
X073660Y062220D02*
X073660Y061660D01*
X078440Y061090D02*
X079000Y061090D01*
X079000Y060090D02*
X078440Y060090D01*
X078440Y059090D02*
X079000Y059090D01*
X079120Y056690D02*
X079120Y056130D01*
X078120Y056130D02*
X078120Y056690D01*
X072985Y053930D02*
X072425Y053930D01*
X072425Y052930D02*
X072985Y052930D01*
X070410Y056025D02*
X070410Y056585D01*
X069410Y056585D02*
X069410Y056025D01*
X064010Y055100D02*
X063450Y055100D01*
X063450Y054100D02*
X064010Y054100D01*
X060915Y055755D02*
X060915Y056315D01*
X059915Y056315D02*
X059915Y055755D01*
X053600Y061110D02*
X053600Y061670D01*
X052600Y061670D02*
X052600Y061110D01*
X056920Y041610D02*
X057480Y041610D01*
X057480Y040610D02*
X056920Y040610D01*
X056820Y039610D02*
X057380Y039610D01*
X057380Y038610D02*
X056820Y038610D01*
X058800Y037040D02*
X059360Y037040D01*
X059360Y036040D02*
X058800Y036040D01*
X058880Y034310D02*
X058320Y034310D01*
X058320Y033310D02*
X058880Y033310D01*
X058480Y030910D02*
X057920Y030910D01*
X057920Y029910D02*
X058480Y029910D01*
X054950Y031730D02*
X054950Y032290D01*
X053950Y032290D02*
X053950Y031730D01*
X052960Y032990D02*
X052960Y033550D01*
X051960Y033550D02*
X051960Y032990D01*
X052210Y034640D02*
X052210Y035200D01*
X053210Y035200D02*
X053210Y034640D01*
X053000Y036430D02*
X053000Y036990D01*
X052000Y036990D02*
X052000Y036430D01*
X045000Y040830D02*
X045000Y041390D01*
X044000Y041390D02*
X044000Y040830D01*
X040080Y031170D02*
X039520Y031170D01*
X039520Y030170D02*
X040080Y030170D01*
X044170Y019110D02*
X044730Y019110D01*
X044730Y018110D02*
X044170Y018110D01*
X044170Y017110D02*
X044730Y017110D01*
X043245Y011415D02*
X043245Y010855D01*
X042245Y010855D02*
X042245Y011415D01*
X041245Y011415D02*
X041245Y010855D01*
X032925Y010950D02*
X032925Y011510D01*
X031925Y011510D02*
X031925Y010950D01*
X030925Y010950D02*
X030925Y011510D01*
X020290Y012305D02*
X020290Y012865D01*
X019290Y012865D02*
X019290Y012305D01*
X018290Y012305D02*
X018290Y012865D01*
X011980Y008810D02*
X011420Y008810D01*
X011420Y007810D02*
X011980Y007810D01*
X011980Y006810D02*
X011420Y006810D01*
X011520Y017510D02*
X012080Y017510D01*
X012080Y018510D02*
X011520Y018510D01*
X011520Y019510D02*
X012080Y019510D01*
X020825Y029635D02*
X021385Y029635D01*
X021385Y030635D02*
X020825Y030635D01*
X020110Y030975D02*
X019550Y030975D01*
X020825Y031635D02*
X021385Y031635D01*
X020110Y031975D02*
X019550Y031975D01*
X019550Y032975D02*
X020110Y032975D01*
X019930Y034370D02*
X019930Y034930D01*
X018930Y034930D02*
X018930Y034370D01*
X018140Y033540D02*
X017580Y033540D01*
X017580Y032540D02*
X018140Y032540D01*
X018140Y031540D02*
X017580Y031540D01*
X016115Y032645D02*
X015555Y032645D01*
X015555Y033645D02*
X016115Y033645D01*
X016115Y034645D02*
X015555Y034645D01*
X014815Y035810D02*
X014255Y035810D01*
X014255Y036810D02*
X014815Y036810D01*
X014815Y037810D02*
X014255Y037810D01*
X013350Y040380D02*
X013350Y040940D01*
X012350Y040940D02*
X012350Y040380D01*
X017665Y037760D02*
X018225Y037760D01*
X018225Y036760D02*
X017665Y036760D01*
X017665Y035760D02*
X018225Y035760D01*
X020930Y034930D02*
X020930Y034370D01*
X013180Y031910D02*
X012620Y031910D01*
X012620Y030910D02*
X013180Y030910D01*
X013180Y029910D02*
X012620Y029910D01*
X051900Y010590D02*
X051900Y010030D01*
X052900Y010030D02*
X052900Y010590D01*
X053900Y010590D02*
X053900Y010030D01*
X071600Y022430D02*
X071600Y022990D01*
X072600Y022990D02*
X072600Y022430D01*
X064380Y028210D02*
X063820Y028210D01*
X063820Y029210D02*
X064380Y029210D01*
X073530Y035360D02*
X074090Y035360D01*
X074090Y036360D02*
X073530Y036360D01*
X065130Y039960D02*
X064570Y039960D01*
X064570Y040960D02*
X065130Y040960D01*
X075925Y009660D02*
X076485Y009660D01*
X076485Y008660D02*
X075925Y008660D01*
X078395Y008580D02*
X078955Y008580D01*
X078955Y009580D02*
X078395Y009580D01*
D22*
X029785Y019645D03*
X029115Y019645D03*
X026580Y019585D03*
X025910Y019585D03*
X024745Y019465D03*
X024075Y019465D03*
X025950Y025750D03*
X025385Y026040D03*
X024715Y026040D03*
X026620Y025750D03*
X028310Y026115D03*
X028980Y026115D03*
X009535Y052670D03*
X008865Y052670D03*
X008935Y055410D03*
X008265Y055410D03*
X004385Y052960D03*
X003715Y052960D03*
X003915Y061110D03*
X004585Y061110D03*
D23*
X007250Y055427D03*
X008234Y037163D03*
X008634Y028563D03*
X009484Y026263D03*
X008984Y016963D03*
X008984Y014113D03*
X014247Y008944D03*
X008684Y005463D03*
X023947Y009344D03*
X026547Y008544D03*
X034947Y007994D03*
X037147Y007544D03*
X045597Y007744D03*
X047947Y007794D03*
X047166Y013357D03*
X055897Y007444D03*
X046916Y021857D03*
X034650Y027460D03*
D24*
X006716Y004557D03*
X006716Y005463D03*
X007700Y005463D03*
X007700Y004557D03*
X008684Y004557D03*
X014247Y006976D03*
X015153Y006976D03*
X015153Y007960D03*
X014247Y007960D03*
X015153Y008944D03*
X008984Y013207D03*
X008000Y013207D03*
X007016Y013207D03*
X007016Y014113D03*
X008000Y014113D03*
X008000Y016057D03*
X008000Y016963D03*
X007016Y016963D03*
X007016Y016057D03*
X008984Y016057D03*
X008500Y025357D03*
X008500Y026263D03*
X007516Y026263D03*
X007516Y025357D03*
X009484Y025357D03*
X008634Y027657D03*
X007650Y027657D03*
X006666Y027657D03*
X006666Y028563D03*
X007650Y028563D03*
X007250Y036257D03*
X007250Y037163D03*
X006266Y037163D03*
X006266Y036257D03*
X008234Y036257D03*
X006750Y054543D03*
X005750Y054543D03*
X004750Y054543D03*
X005250Y055427D03*
X006250Y055427D03*
X004226Y055427D03*
X003726Y054543D03*
X003009Y059253D03*
X004009Y059852D03*
X006990Y059253D03*
X007990Y059852D03*
X033863Y032184D03*
X033863Y031397D03*
X034650Y031397D03*
X034650Y030610D03*
X033863Y030610D03*
X033863Y029822D03*
X034650Y029822D03*
X034650Y029035D03*
X033863Y029035D03*
X033863Y028247D03*
X034650Y028247D03*
X033863Y027460D03*
X034650Y032184D03*
X046916Y022763D03*
X047900Y022763D03*
X047900Y021857D03*
X048884Y021857D03*
X048884Y022763D03*
X049134Y014263D03*
X049134Y013357D03*
X048150Y013357D03*
X048150Y014263D03*
X047166Y014263D03*
X046503Y007744D03*
X046503Y006760D03*
X045597Y006760D03*
X045597Y005776D03*
X046503Y005776D03*
X047947Y005826D03*
X048853Y005826D03*
X048853Y006810D03*
X047947Y006810D03*
X048853Y007794D03*
X055897Y006460D03*
X056803Y006460D03*
X056803Y007444D03*
X056803Y005476D03*
X055897Y005476D03*
X038053Y005576D03*
X037147Y005576D03*
X035853Y006026D03*
X034947Y006026D03*
X034947Y007010D03*
X035853Y007010D03*
X035853Y007994D03*
X037147Y006560D03*
X038053Y006560D03*
X038053Y007544D03*
X027453Y007560D03*
X026547Y007560D03*
X026547Y006576D03*
X027453Y006576D03*
X027453Y008544D03*
X024853Y008360D03*
X023947Y008360D03*
X024853Y009344D03*
X024853Y007376D03*
X023947Y007376D03*
D25*
X007750Y057923D03*
X003250Y057923D03*
D26*
X002439Y056722D03*
X008561Y056722D03*
D27*
X054285Y051040D02*
X054285Y050440D01*
X055285Y050440D02*
X055285Y051040D01*
X056285Y051040D02*
X056285Y050440D01*
X057285Y050440D02*
X057285Y051040D01*
X058285Y051040D02*
X058285Y050440D01*
X063150Y051815D02*
X063150Y052415D01*
X064150Y052415D02*
X064150Y051815D01*
X065150Y051815D02*
X065150Y052415D01*
X066150Y052415D02*
X066150Y051815D01*
X067150Y051815D02*
X067150Y052415D01*
X071950Y051285D02*
X071950Y050685D01*
X072950Y050685D02*
X072950Y051285D01*
X073950Y051285D02*
X073950Y050685D01*
X074950Y050685D02*
X074950Y051285D01*
X075950Y051285D02*
X075950Y050685D01*
D28*
X075760Y060433D02*
X075760Y061437D01*
X077320Y061437D02*
X077320Y060433D01*
X067590Y060558D02*
X067590Y061562D01*
X066030Y061562D02*
X066030Y060558D01*
X058145Y060437D02*
X058145Y059433D01*
X056585Y059433D02*
X056585Y060437D01*
X003502Y022849D02*
X002498Y022849D01*
X002498Y021290D02*
X003502Y021290D01*
X003502Y019730D02*
X002498Y019730D01*
X002498Y018171D02*
X003502Y018171D01*
X003302Y011349D02*
X002298Y011349D01*
X002298Y009790D02*
X003302Y009790D01*
X003302Y008230D02*
X002298Y008230D01*
X002298Y006671D02*
X003302Y006671D01*
X018561Y003112D02*
X018561Y002108D01*
X020120Y002108D02*
X020120Y003112D01*
X021680Y003112D02*
X021680Y002108D01*
X023239Y002108D02*
X023239Y003112D01*
X029711Y003012D02*
X029711Y002008D01*
X031270Y002008D02*
X031270Y003012D01*
X032830Y003012D02*
X032830Y002008D01*
X034389Y002008D02*
X034389Y003012D01*
X039211Y002912D02*
X039211Y001908D01*
X040770Y001908D02*
X040770Y002912D01*
X042330Y002912D02*
X042330Y001908D01*
X043889Y001908D02*
X043889Y002912D01*
X050361Y002912D02*
X050361Y001908D01*
X051920Y001908D02*
X051920Y002912D01*
X053480Y002912D02*
X053480Y001908D01*
X055039Y001908D02*
X055039Y002912D01*
X053262Y013891D02*
X052258Y013891D01*
X052258Y015450D02*
X053262Y015450D01*
X053262Y017010D02*
X052258Y017010D01*
X052258Y018569D02*
X053262Y018569D01*
X003302Y029871D02*
X002298Y029871D01*
X002298Y031430D02*
X003302Y031430D01*
X003302Y032990D02*
X002298Y032990D01*
X002298Y034549D02*
X003302Y034549D01*
D29*
X027412Y020862D03*
X028318Y020862D03*
X028318Y019878D03*
X027412Y019878D03*
D30*
X032680Y035525D02*
X033200Y035525D01*
X033200Y036525D02*
X032680Y036525D01*
X032680Y037525D02*
X033200Y037525D01*
X033200Y038525D02*
X032680Y038525D01*
X032680Y039525D02*
X033200Y039525D01*
X022130Y046000D02*
X022130Y046520D01*
X021130Y046520D02*
X021130Y046000D01*
X020130Y046000D02*
X020130Y046520D01*
X019130Y046520D02*
X019130Y046000D01*
X018130Y046000D02*
X018130Y046520D01*
D31*
X029100Y033310D03*
X027850Y032360D03*
X028450Y031410D03*
X027245Y031245D03*
X028250Y029710D03*
X029900Y031160D03*
X030800Y030660D03*
X031650Y030160D03*
X029650Y032210D03*
X035765Y033505D03*
X035745Y035380D03*
X043870Y042860D03*
X045040Y043080D03*
X046210Y043340D03*
X047470Y044230D03*
X046530Y044855D03*
X045320Y044550D03*
X022820Y028280D03*
X022425Y029775D03*
X019275Y027760D03*
X019945Y026985D03*
X020235Y025675D03*
X020650Y024060D03*
X019550Y024110D03*
X018665Y025065D03*
X017920Y026050D03*
X016845Y026790D03*
X017855Y027290D03*
X017070Y028015D03*
X014400Y025160D03*
X016150Y023510D03*
X016600Y024460D03*
X017750Y022770D03*
X018300Y021610D03*
X017090Y021290D03*
X016250Y022110D03*
X014550Y022260D03*
X025250Y015910D03*
X025350Y014760D03*
X025220Y013775D03*
X026840Y013760D03*
X027050Y014960D03*
X027150Y016060D03*
X028850Y014060D03*
X029850Y014910D03*
X031150Y014660D03*
X031600Y015760D03*
X030050Y016110D03*
X032650Y014410D03*
X031300Y013560D03*
X030840Y012450D03*
X030050Y013410D03*
X028750Y012960D03*
X026600Y010310D03*
X025685Y010920D03*
X025016Y012149D03*
X023660Y012040D03*
X024260Y010970D03*
X037850Y021000D03*
X036620Y021720D03*
X035630Y022040D03*
X034590Y022140D03*
X035970Y025235D03*
X037265Y025185D03*
X036070Y026340D03*
X034650Y025790D03*
X038895Y023845D03*
X039970Y023420D03*
X041000Y022905D03*
X041830Y022180D03*
X040820Y021335D03*
X039735Y022225D03*
X038500Y022580D03*
X040720Y024650D03*
X040410Y025600D03*
X042200Y024110D03*
D32*
X070460Y017435D03*
X073460Y017435D03*
X075460Y017435D03*
X077460Y017435D03*
X077460Y014435D03*
X075460Y014435D03*
X073460Y014435D03*
X070460Y014435D03*
D33*
X068697Y045427D03*
X067043Y045427D03*
X067043Y047593D03*
X068697Y047593D03*
D34*
X070547Y045608D03*
X065193Y045608D03*
D35*
X073555Y057450D03*
X063645Y058150D03*
X054065Y058015D03*
D36*
X054065Y057015D03*
X053065Y057015D03*
X053065Y058015D03*
X052065Y058015D03*
X052065Y057015D03*
X061645Y057150D03*
X061645Y058150D03*
X062645Y058150D03*
X062645Y057150D03*
X063645Y057150D03*
X071555Y057450D03*
X071555Y056450D03*
X072555Y056450D03*
X072555Y057450D03*
X073555Y056450D03*
D37*
X076770Y046940D03*
X042410Y052180D03*
X017130Y040940D03*
X016490Y015820D03*
X069090Y020980D03*
X070290Y002580D03*
D38*
X072300Y003390D03*
X077950Y001510D03*
X077450Y006410D03*
X077330Y007540D03*
X078690Y007660D03*
X075500Y007660D03*
X072300Y008460D03*
X072600Y009260D03*
X074150Y010260D03*
X075600Y010260D03*
X075850Y011010D03*
X076810Y010260D03*
X071350Y011310D03*
X070500Y009310D03*
X067950Y008110D03*
X066150Y007710D03*
X065350Y007410D03*
X066950Y006360D03*
X064550Y004660D03*
X065500Y004310D03*
X066750Y003810D03*
X063850Y005760D03*
X062200Y006510D03*
X061500Y004810D03*
X062800Y004060D03*
X059300Y004910D03*
X055900Y004860D03*
X055000Y005860D03*
X055000Y006910D03*
X053350Y007410D03*
X053250Y008460D03*
X049850Y007960D03*
X049400Y008660D03*
X049605Y010405D03*
X053305Y012030D03*
X050890Y013460D03*
X051210Y014700D03*
X049900Y016860D03*
X048400Y015160D03*
X046900Y015360D03*
X045450Y015560D03*
X042330Y017660D03*
X043580Y020445D03*
X044570Y023900D03*
X047900Y020760D03*
X049550Y021310D03*
X049800Y020710D03*
X050550Y024780D03*
X051290Y024840D03*
X051030Y025400D03*
X051370Y025520D03*
X051690Y025740D03*
X052030Y025940D03*
X052390Y025960D03*
X052790Y025220D03*
X053900Y026110D03*
X051730Y029940D03*
X052230Y031320D03*
X047800Y030410D03*
X045150Y030160D03*
X043210Y030820D03*
X044150Y032950D03*
X043850Y034260D03*
X044570Y034980D03*
X045500Y034510D03*
X045200Y036210D03*
X043610Y036410D03*
X041550Y038060D03*
X043400Y039490D03*
X043900Y038710D03*
X046450Y039210D03*
X046450Y040310D03*
X048200Y039510D03*
X048950Y038310D03*
X051230Y037280D03*
X052315Y037760D03*
X053550Y038610D03*
X054140Y039360D03*
X053450Y040020D03*
X052400Y039510D03*
X050890Y041060D03*
X051750Y041210D03*
X051290Y042740D03*
X049770Y043540D03*
X049550Y043280D03*
X050275Y045225D03*
X049870Y045660D03*
X050285Y046660D03*
X051020Y047170D03*
X050550Y047580D03*
X049050Y047281D03*
X048670Y046940D03*
X045210Y046350D03*
X043980Y045940D03*
X043710Y046195D03*
X043760Y045265D03*
X042400Y045020D03*
X042070Y045860D03*
X043680Y047910D03*
X037540Y045295D03*
X037520Y044730D03*
X037010Y043420D03*
X036490Y043340D03*
X035630Y044220D03*
X034590Y043900D03*
X033710Y043560D03*
X032810Y043620D03*
X033030Y044370D03*
X033110Y044880D03*
X033050Y045660D03*
X033190Y046200D03*
X033050Y047020D03*
X034290Y047780D03*
X035530Y048100D03*
X036710Y047860D03*
X037290Y047250D03*
X036470Y049560D03*
X035610Y052140D03*
X036440Y052975D03*
X035150Y053720D03*
X034655Y053975D03*
X034510Y053300D03*
X033330Y052620D03*
X033120Y051560D03*
X031725Y051020D03*
X031890Y049540D03*
X032580Y049230D03*
X027405Y047220D03*
X027210Y046505D03*
X026910Y046260D03*
X026550Y045720D03*
X026210Y045970D03*
X025730Y044720D03*
X022550Y043580D03*
X020970Y041600D03*
X025245Y038120D03*
X025665Y038135D03*
X025450Y037420D03*
X024985Y036850D03*
X024530Y037780D03*
X024150Y037680D03*
X023890Y036840D03*
X023630Y036600D03*
X023290Y036120D03*
X023050Y035460D03*
X023520Y035400D03*
X024970Y035340D03*
X020610Y035980D03*
X019995Y036890D03*
X026550Y039300D03*
X026890Y039120D03*
X027210Y038880D03*
X030740Y039800D03*
X032580Y040820D03*
X033410Y041420D03*
X038750Y042320D03*
X039360Y040350D03*
X041195Y040390D03*
X040000Y034910D03*
X036950Y034520D03*
X037315Y028230D03*
X038670Y027960D03*
X032750Y025810D03*
X031600Y026660D03*
X029788Y026015D03*
X029867Y024820D03*
X030510Y024280D03*
X030410Y022480D03*
X030470Y021960D03*
X032315Y022440D03*
X033920Y021900D03*
X035370Y019900D03*
X032430Y017680D03*
X030530Y019480D03*
X029810Y019020D03*
X028910Y019120D03*
X027430Y019180D03*
X027080Y019310D03*
X026750Y019140D03*
X025910Y019180D03*
X025190Y019500D03*
X024270Y020380D03*
X023790Y020960D03*
X025095Y020845D03*
X023510Y022520D03*
X024070Y024120D03*
X024230Y024960D03*
X026070Y026280D03*
X026790Y026300D03*
X027755Y026265D03*
X026530Y028280D03*
X025230Y028220D03*
X018345Y028685D03*
X021410Y022620D03*
X013050Y021840D03*
X011605Y022120D03*
X010100Y024060D03*
X008600Y024010D03*
X007650Y023960D03*
X006910Y024600D03*
X006850Y021810D03*
X006600Y018360D03*
X002900Y014860D03*
X005730Y013420D03*
X007100Y012060D03*
X008150Y012060D03*
X009700Y012210D03*
X012340Y011430D03*
X009650Y010020D03*
X006200Y010210D03*
X006150Y006160D03*
X010400Y003710D03*
X016301Y002821D03*
X018770Y006160D03*
X016400Y007610D03*
X016450Y009160D03*
X016130Y009540D03*
X017500Y010160D03*
X018770Y011620D03*
X021170Y011820D03*
X022650Y011820D03*
X021000Y010110D03*
X022650Y009060D03*
X023200Y009410D03*
X021900Y007160D03*
X023200Y006210D03*
X022810Y005500D03*
X022400Y004810D03*
X021970Y005500D03*
X018930Y008580D03*
X013535Y014925D03*
X027850Y005500D03*
X030350Y005910D03*
X030350Y007410D03*
X031550Y007260D03*
X032250Y007910D03*
X031950Y009410D03*
X030500Y008910D03*
X028810Y009460D03*
X028930Y010420D03*
X033950Y006360D03*
X033650Y005310D03*
X032050Y005860D03*
X034900Y009060D03*
X039050Y006510D03*
X039100Y007960D03*
X042450Y008410D03*
X042500Y007410D03*
X044450Y007010D03*
X044650Y005910D03*
X046050Y004410D03*
X048090Y004260D03*
X049750Y006460D03*
X051450Y004910D03*
X058600Y010060D03*
X059070Y011680D03*
X061500Y012490D03*
X062220Y012130D03*
X063150Y011160D03*
X064250Y010360D03*
X066450Y010210D03*
X064170Y012590D03*
X064620Y014630D03*
X066230Y014640D03*
X064240Y016420D03*
X062950Y016840D03*
X062270Y015700D03*
X062240Y015130D03*
X058850Y016860D03*
X061570Y017790D03*
X061360Y020180D03*
X057770Y020240D03*
X055405Y015290D03*
X045790Y011410D03*
X043510Y012455D03*
X040890Y012530D03*
X040930Y005180D03*
X040460Y004560D03*
X037410Y004060D03*
X063550Y008460D03*
X066890Y017760D03*
X068110Y018240D03*
X065220Y018200D03*
X070600Y025210D03*
X069600Y026210D03*
X071730Y029420D03*
X071250Y032940D03*
X069340Y034160D03*
X071075Y038140D03*
X075230Y036920D03*
X068000Y042560D03*
X069400Y043370D03*
X066190Y043215D03*
X066140Y045190D03*
X062310Y049145D03*
X061410Y050380D03*
X061440Y051040D03*
X060510Y049960D03*
X060055Y049420D03*
X057580Y049590D03*
X056540Y047625D03*
X056960Y046855D03*
X057805Y046515D03*
X056770Y044410D03*
X055990Y042640D03*
X053950Y043460D03*
X053100Y043260D03*
X054450Y040640D03*
X056350Y041010D03*
X054550Y038460D03*
X056330Y037780D03*
X055900Y036110D03*
X055300Y036010D03*
X053770Y036020D03*
X058200Y031410D03*
X061240Y032430D03*
X061570Y034580D03*
X061570Y035540D03*
X060330Y037940D03*
X062050Y038940D03*
X060750Y040060D03*
X061140Y040810D03*
X062100Y040560D03*
X060850Y041760D03*
X059310Y043020D03*
X053785Y048080D03*
X052200Y046370D03*
X046390Y053665D03*
X047120Y054870D03*
X050180Y054385D03*
X051850Y053810D03*
X055315Y054885D03*
X058755Y054645D03*
X059840Y054240D03*
X059235Y053365D03*
X058755Y053645D03*
X061770Y052700D03*
X063615Y051115D03*
X068450Y053210D03*
X068563Y054850D03*
X064605Y055900D03*
X064605Y057615D03*
X065930Y058915D03*
X067090Y059150D03*
X067430Y059295D03*
X068850Y058175D03*
X069555Y058215D03*
X073350Y055305D03*
X073890Y055620D03*
X073890Y054940D03*
X076395Y056930D03*
X077585Y055235D03*
X077315Y053890D03*
X077295Y052550D03*
X079204Y049881D03*
X078345Y049375D03*
X077615Y048915D03*
X074585Y048370D03*
X071850Y047550D03*
X072370Y045730D03*
X072890Y045460D03*
X074085Y046100D03*
X069785Y049960D03*
X068875Y049665D03*
X071020Y050720D03*
X072410Y050300D03*
X078720Y057385D03*
X076275Y058690D03*
X075185Y058305D03*
X074535Y061140D03*
X064810Y062010D03*
X063835Y060505D03*
X062182Y059204D03*
X060440Y057285D03*
X059230Y056555D03*
X058775Y058265D03*
X057285Y058635D03*
X055515Y060245D03*
X059900Y062170D03*
X059965Y061735D03*
X062450Y055050D03*
X043250Y059585D03*
X043170Y060620D03*
X040590Y059040D03*
X036710Y062010D03*
X034610Y059020D03*
X030085Y054600D03*
X028000Y055915D03*
X027395Y055915D03*
X027710Y056520D03*
X028595Y056700D03*
X028280Y057325D03*
X026150Y056310D03*
X024730Y057420D03*
X024700Y058380D03*
X023150Y061210D03*
X023945Y054840D03*
X021300Y054610D03*
X019900Y053210D03*
X020220Y052110D03*
X020170Y050640D03*
X019850Y049960D03*
X022255Y047305D03*
X024950Y047780D03*
X026330Y048160D03*
X025450Y049300D03*
X026330Y049480D03*
X026330Y050620D03*
X023850Y052260D03*
X016335Y047520D03*
X015955Y047590D03*
X015980Y048070D03*
X015460Y048200D03*
X014500Y045710D03*
X014650Y044560D03*
X012450Y045510D03*
X011990Y044290D03*
X010500Y044810D03*
X010020Y044480D03*
X009720Y043760D03*
X007450Y044760D03*
X005600Y045460D03*
X006400Y046660D03*
X007500Y046910D03*
X007400Y047560D03*
X007030Y047510D03*
X006950Y048710D03*
X007450Y049210D03*
X008130Y048965D03*
X007050Y049910D03*
X007470Y051900D03*
X010100Y053010D03*
X011600Y052310D03*
X011550Y050310D03*
X010950Y049760D03*
X008440Y047100D03*
X008450Y046280D03*
X010450Y046160D03*
X006750Y042110D03*
X006400Y039960D03*
X010875Y040010D03*
X011005Y041755D03*
X012380Y036330D03*
X009000Y035110D03*
X007800Y035360D03*
X007000Y035110D03*
X005490Y035820D03*
X006300Y033160D03*
X004700Y030710D03*
X005900Y029560D03*
X001900Y045120D03*
X001665Y046945D03*
X001675Y049460D03*
X003795Y051000D03*
X004050Y053510D03*
X035985Y054030D03*
X048410Y028300D03*
X060150Y027710D03*
M02*
